<svg xmlns="http://www.w3.org/2000/svg" xml:space="preserve" width="96" height="96" viewBox="0 0 211.667 211.667"><metadata id="license" xmlns:rdf="http://www.w3.org/1999/02/22-rdf-syntax-ns#" xmlns:dc="http://purl.org/dc/elements/1.1/" xmlns:cc="http://creativecommons.org/ns#"><rdf:RDF><cc:Work><dc:format>image/svg+xml</dc:format><dc:type rdf:resource="http://purl.org/dc/dcmitype/StillImage" /><cc:license rdf:resource="https://creativecommons.org/licenses/by/4.0/" /><dc:creator><cc:Agent><dc:title>https://github.com/snipsnipsnip</dc:title></cc:Agent></dc:creator><cc:License rdf:about="http://creativecommons.org/licenses/by/4.0/"><cc:permits rdf:resource="http://creativecommons.org/ns#Reproduction" /><cc:permits rdf:resource="http://creativecommons.org/ns#Distribution" /><cc:requires rdf:resource="http://creativecommons.org/ns#Notice" /><cc:requires rdf:resource="http://creativecommons.org/ns#Attribution" /><cc:permits rdf:resource="http://creativecommons.org/ns#DerivativeWorks" /></cc:License><dc:source>https://commons.wikimedia.org/wiki/File:Grey-headed_Bushshrike_(Malaconotus_blanchoti)_in_tree,_crop.jpg licensed under CC-BY-2.0 by Patty McGann</dc:source></cc:Work></rdf:RDF></metadata><path d="M7.648-2.674h214.225v218.439H7.648z" style="fill:#eee;fill-opacity:1;fill-rule:nonzero;stroke:#000;stroke-width:.264999;stroke-opacity:1" transform="translate(-9.053 -.838)"/><path d="M56.83 33.154c-4.02.114-8.01.894-11.843 2.09-2.128.744-3.976 2.076-5.677 3.522-4.573 3.181-9.158 6.738-11.88 11.716-.301.595-.62 1.204-1.3 1.428-1.289.556-2.64.953-3.907 1.563-5.395 2.153-10.871 4.832-14.602 9.437-2.149 2.685-3.546 6.361-2.494 9.777 1.106 3.088 5.224 4.632 8.042 2.88 1.019-.52 2.313-.862 3.521-.645 3.69.188 7.348.83 11.046.871.85.072 1.699.514 1.976 1.364 1.74 3.116 3.665 6.227 6.455 8.518.677.601 1.48 1.113 1.734 2.036.577 1.5 1.258 2.958 2.189 4.273 1.202 1.836 2.602 3.729 4.601 4.725.523.115.554.852.974 1.149.835.989 2.05 1.69 2.494 2.963 1.366 2.49 4.047 3.74 6.188 5.443 2.206 1.57 4.097 3.51 6.121 5.296 3.051 2.789 5.822 5.903 9.118 8.411 2.08 1.525 4.421 2.63 6.758 3.689 3.316 1.919 6.535 4 9.94 5.761 2.295 1.347 4.309 3.107 6.277 4.884-1.605 1.48-3.535 2.78-4.518 4.796-.457 1.058-.553 2.227-.957 3.301-1.405.63-2.71 1.46-4.036 2.225-1.706.678-3.474 1.159-5.21 1.746-3.03.632-6.38.375-9.14 2.063-1.813 1.048-3.659 2.053-5.63 2.771-2.737 1.286-5.416 2.705-8.228 3.824-2.053.987-3.767 2.985-3.778 5.351-.293 2.845.94 6.094 3.701 7.286 2.067.952 4.301 1.46 6.407 2.319 3.197 1.16 6.494 2.068 9.864 2.546 2.278.491 4.592 1.112 6.554 2.416.776 1.443 1.626 2.928 3.07 3.801 2.4 1.564 5.469 1.785 8.22 1.242.864-.246 1.673-.697 2.304-1.34 2.404 1.166 5.637 1.245 7.646-.735.31-.255.434-.848.937-.612 1.84.172 3.65-.36 5.46-.523 1.908.424 4.04.371 5.708-.755 1.733-.869 3.67-1.256 5.594-1.312.448-.13.991-.262 1.318.166 2.44 1.61 5.483 1.105 8.238 1.148 5.82-.02 11.632-.51 17.378-1.42 4.23-.485 8.464-.95 12.696-1.417 4.439-.351 8.95-.405 13.27-1.594 2.863-.079 5.663.966 8.535.615 2.126-.061 4.206.439 6.292.75 3.152.254 6.328-.866 9.38.308 4.88 1.444 9.887 2.433 14.936 3.06 3.493.514 6.924 1.235 10.35 2.02 2.583.308 5.571-1.234 6.084-3.939.506-2.914-2.299-5.755-5.2-5.498-2.613-.632-5.23-1.267-7.906-1.568-5.375-.844-10.808-1.557-15.99-3.278-3.329-.918-6.826-.795-10.226-.45-2.188-.052-4.263-.983-6.467-.892-1.94-.025-3.93.376-5.819-.263-2.272-.553-4.633-.395-6.904.073-2.462.482-4.934 1-7.455 1.004-7.426.406-14.791 1.505-22.167 2.416-4.585.678-9.31.482-13.96.54-1.548-.88-3.269-1.835-5.118-1.487-3.629.085-7.13 1.162-10.6 2.108-1.991.131-4.127-.325-5.975.645-1.437-3.326-5.615-5.196-9.025-3.85-2.182.773-3.819 2.648-4.73 4.73-.553.256-1.045.626-1.507 1.02-1.24-2.151-3.414-3.617-5.764-4.314-3.822-1.437-7.835-2.24-11.815-3.093a27 27 0 0 1-3.517-1.132c3.444-1.525 6.795-3.259 10.213-4.833 2.43-.75 5.056-.522 7.416-1.573 1.548-.615 3.138-1.115 4.713-1.643 1.285-.561 2.27-1.682 3.67-1.982 1.67-.565 3.126-1.71 3.983-3.26.86-1.413 1.211-3.05 1.675-4.62 2.643-2.08 5.165-4.444 6.857-7.38.787-1.347 1.026-3.022.395-4.479-.77-2.01-2.63-3.475-4.682-4.011-2.31-1.237-3.623-3.752-6.012-4.888-3.855-2.382-7.883-4.42-11.68-6.888-2.721-1.528-5.835-2.5-8.033-4.83-3.572-3.459-7.073-6.966-10.903-10.14-1.893-1.616-3.928-3.064-5.916-4.547-1.057-1.248-1.768-2.868-3.272-3.668-.347-.678-.402-1.503-.958-2.08-.874-1.213-2.235-2.032-3.686-2.348-1.553-1.826-1.83-4.343-3.153-6.31-.924-1.588-2.366-2.766-3.784-3.885-2.234-2.22-3.393-5.218-5.214-7.737-1.404-1.849-3.545-3.061-5.838-3.385-2.803-.512-5.655-.382-8.418-.722-1.129-.097-2.257-.202-3.388-.277 4.004-2.62 8.671-3.802 12.876-6.022 1.76-.9 3.247-2.353 3.994-4.202.646-1.477 1.626-2.765 2.794-3.868 2.774-2.725 6.129-4.745 9.168-7.147 1.678-.984 3.73-.774 5.515-1.468 3.81-1.035 7.786-.626 11.56.251 3.397.695 7.13.585 10.109 2.602 1.897 1.168 4.051 2.117 5.375 3.996 2.066 2.729 5.114 4.414 7.755 6.506.714 1.532 1.133 3.431 2.735 4.315 2.22 1.601 5.112 1.21 7.662.933 4.902-.658 9.891-1.042 14.811-.327 3.986.464 8.083.613 11.86 2.11 4.485 1.696 9.243 2.696 13.55 4.844 4.11 2.526 8.313 4.96 12.062 8.01 2.479 2.437 4.681 5.135 6.984 7.73 2.23 2.9 4.014 6.107 5.985 9.181a74.3 74.3 0 0 1 5.595 11.205c1.1 2.45 2.688 4.622 3.87 7.001-3.12.667-6.158 1.69-9.31 2.21-3.048.616-6.405 1.273-8.548 3.737-1.053 1.162-1.451 2.704-2.104 4.083-1.32 2.262-3.28 4.247-3.761 6.913-.615 2.807-.237 5.702-.491 8.545-.202 2.876-1.032 5.634-1.024 8.544.024 1.596.078 3.32.916 4.722 1.51 2.29 4.71 2.898 7.17 1.936 3.89-.97 7.475-2.808 11.163-4.322 2.188-.691 4.512-.206 6.749-.586 2.18-.218 4.296-.84 6.332-1.622 3.238-.918 6.513-1 9.855-1.472 2.37-.255 4.858-.498 7.27-.787.72.338 1.192 1.056 1.905 1.432 1.529 1.125 3.455 1.702 5.35 1.48l8.102.09c1.512 1.715 3.727 2.815 6.02 2.908.678.43 1.35.87 2.044 1.275 3.555-1.269 5.35-5.79 3.786-9.19-.949-2.28-3.012-3.778-4.698-5.482l-1.584 2.037c-2.001-1.312-4.505-.932-6.77-1.035-2.24-.038-4.502.094-6.73-.092-.89-.549-1.657-1.286-2.582-1.793-1.878-1.173-4.201-1.728-6.373-1.13-1.813.367-3.648.586-5.487.748-3.306.5-6.596.85-9.942 1.18-3.666.575-7.115 2.326-10.88 2.274-2.913.12-5.905.504-8.491 1.944-1.002.44-2.002.881-3.009 1.31.58-3.225.857-6.533.501-9.796.37-2.14 2.322-3.468 3.201-5.374.453-.788.796-1.64 1.033-2.517 2.035-.742 4.228-.876 6.316-1.427 2.477-.526 4.868-1.356 7.367-1.72 2.453-.228 4.96.3 7.38-.234 2.124-.716 3.218-3.166 2.854-5.291-.154-2.447-1.81-4.446-3.563-6.009-1.617-1.67-2.395-3.943-3.658-5.817-1.258-2.047-2.228-4.358-3.144-6.614-1.809-4.224-4.062-8.244-6.608-12.065-1.932-3.118-4.083-6.113-6.633-8.758-3.023-3.488-5.997-7.19-10.054-9.535-4.616-3.04-9.172-6.382-14.523-8.017-4.59-1.565-9.19-3.117-13.851-4.452-5.102-1.25-10.372-1.527-15.592-1.915-4.108-.139-8.216.188-12.297.631-1.137-2.75-3.862-4.259-6.147-5.932-3.312-2.62-6.189-5.987-9.998-8.006-1.812-1.204-3.707-2.387-5.874-2.811-4.091-1.104-8.314-1.585-12.49-2.253-1.787-.144-3.583-.06-5.374-.078" style="fill:#000;fill-opacity:1;stroke-width:1;stroke-dasharray:none" transform="translate(-3.595 -.309)"/><path d="M110.254 131.16c-2.953.048-5.313 2.428-6.393 5.016-1.021 1.776-.41 4.299 1.417 5.285.406.206.925.215.664.799-.13 1.737.845 3.622 2.606 4.101 1.298.598 2.634 1.13 4.033 1.42 3.56.345 7.147-.008 10.64-.729 4.204-.829 8.44-1.485 12.71-1.878 1.948-.185 3.9-.639 5.66-1.513 1.787-.814 2.386-3.488.918-4.876-1.586-1.816-4.182-1.935-6.419-2.022-2.552-.199-5.08-.74-7.612-.918-3.643-.375-7.343-.776-10.76-2.175-1.104-.388-2.28-.584-3.383-.93-1.171-.886-2.567-1.653-4.08-1.58m.16 5.195c1.254.72 2.504 1.507 3.955 1.746 2.05.536 4 1.402 6.1 1.75 2.375.517 4.784.856 7.196 1.15-2.996.545-5.994 1.087-9.001 1.55-2.049.222-4.125.058-6.158-.226-.465-.115-1.045-.188-1.42-.434.185-1.723-.599-3.505-2.03-4.49.303-.412.64-1.123 1.191-1.124l.09.042z" style="fill:#000" transform="translate(-9.053 -.838)"/><path d="M90.545 174.75c-.862-.449-1.124-.774-1.843-2.287-.762-1.606-1.212-2.036-2.99-2.862-1.5-.695-7.369-2.39-9.478-2.735-.918-.15-2.063-.36-2.546-.467-.903-.199-9.41-3.31-10.357-3.788-1.396-.705-1.688-1.521-.775-2.171.5-.356 6.155-2.968 10.43-4.818.965-.418 2.704-1.28 3.863-1.914 1.158-.636 2.207-1.156 2.33-1.156s.663-.155 1.2-.343 2.054-.474 3.373-.633c1.931-.234 2.596-.39 3.414-.803.559-.282 1.714-.7 2.568-.929 1.828-.489 2.092-.617 3.33-1.623.534-.434 1.121-.762 1.366-.762.621 0 1.658-.473 2.233-1.019.687-.652 1.083-1.483 1.517-3.183.56-2.194.807-2.676 1.636-3.202 1.687-1.071 5.649-5.21 6.084-6.356.204-.537-.012-1.272-.48-1.63-.166-.127-.722-.391-1.236-.588-1.67-.638-4.475-2.789-5.035-3.859-.27-.516-2.717-2.074-6.585-4.192a114 114 0 0 1-5.004-2.929c-2.498-1.575-3.505-2.116-5.544-2.976-2.142-.903-3.874-2.231-7.45-5.713-5.592-5.446-9.845-9.181-12.44-10.926-2.048-1.377-3.141-2.403-3.815-3.58-.315-.552-.836-1.137-1.27-1.427-.85-.568-1.878-1.998-1.878-2.61 0-.62-.57-1.08-1.51-1.222-1.62-.243-3.033-2.021-4.547-5.723-1.132-2.768-1.627-3.495-3.097-4.548-1.416-1.014-3.765-4.02-5.374-6.877-2.346-4.167-2.244-4.12-10.407-4.72-9.669-.71-10.428-.677-13.484.568-.498.203-.603.2-.75-.025-.676-1.028 1.536-4.672 4.068-6.703 2.842-2.28 5.963-3.958 11.392-6.124 1.977-.789 3.992-1.688 4.477-1.999 1.113-.712 2.023-1.74 2.023-2.284 0-.23.343-.93.762-1.555 1.761-2.626 4.65-5.383 7.997-7.633 1.1-.74 2.364-1.671 2.81-2.072 1.096-.985 2.927-2.149 3.695-2.35.345-.09 1.335-.293 2.2-.452s2.248-.493 3.073-.742c1.346-.407 1.863-.46 5.012-.524 3.566-.072 4.185-.016 7.06.64.89.203 2.826.525 4.303.715 1.757.227 3.227.53 4.254.878.863.293 1.693.534 1.844.536.151.001.96.456 1.799 1.01a69 69 0 0 0 3.056 1.883c1.084.621 1.794 1.183 2.427 1.921 2.417 2.82 4.242 4.445 6.559 5.844 1.526.922 2.775 2.195 3.126 3.187.492 1.393.825 2.125 1.051 2.313.56.464 2.248.52 5.171.173 7.08-.842 9.92-.89 15.688-.27 2.237.242 4.54.483 5.12.538 2.445.23 4.357.75 11.81 3.223 8.06 2.674 9.61 3.256 10.03 3.763.132.16.34.292.46.292.122 0 .32.12.442.266s.784.561 1.47.922c1.06.556 8.573 5.475 9.694 6.347.482.375 3.893 4.094 5.313 5.793a59 59 0 0 0 2.3 2.563c.653.676 1.327 1.503 1.5 1.838.172.334 1.358 2.23 2.635 4.214 3.374 5.241 5.991 9.914 6.888 12.295.236.63.687 1.658 1.002 2.285s.67 1.44.79 1.805c.12.364.688 1.37 1.262 2.236s1.189 1.912 1.366 2.325.451.858.61.99c.157.13.287.37.287.533 0 .536.967 1.831 2.69 3.605.935.962 1.7 1.8 1.7 1.865 0 .225-1.345.334-4.15.336-2.617.002-2.956.04-4.477.507-.905.277-1.922.56-2.26.63s-1.721.387-3.073.707-3.05.68-3.771.797c-3.335.547-5.394 1.7-5.722 3.207-.067.31-.23.719-.363.91-.132.19-.24.462-.24.605s-.749 1.37-1.663 2.726c-.915 1.357-1.79 2.823-1.946 3.258-.217.607-.319 1.944-.439 5.758-.085 2.733-.21 5.056-.277 5.164-.334.541-.614 2.638-.71 5.323-.128 3.595-.17 3.512 1.744 3.379.987-.07 1.995-.353 4.52-1.274 1.786-.652 3.8-1.487 4.477-1.856.676-.369 1.96-.915 2.852-1.213 1.497-.5 1.897-.554 5.18-.698 3.702-.162 3.782-.177 7.332-1.33 2.438-.792 2.867-.876 6.673-1.308 1.787-.202 3.92-.48 4.741-.616s2.416-.291 3.545-.345 2.6-.213 3.268-.353c1.646-.346 2.11-.19 4.291 1.449l1.802 1.353 6.097.058 6.097.057.639.87c1.046 1.426 1.63 1.771 3.227 1.912.893.078 1.48.22 1.66.4.25.248.279 1.718.279 14.074v13.797h-.884c-.486 0-1.146-.11-1.466-.243-1.188-.497-4.27-1.055-13.63-2.469-2.883-.435-4.26-.753-8.077-1.861-3.731-1.084-5.416-1.233-9.437-.837-2.069.204-2.215.195-3.863-.218-1.515-.38-2.12-.432-5.225-.448-2.758-.014-3.72-.081-4.478-.314-.53-.163-1.716-.34-2.634-.391-1.64-.094-2.422.006-5.619.71-1.43.315-4.034.565-8.428.807-1.883.104-4.096.3-4.917.437s-3.705.49-6.409.783-5.588.656-6.41.806c-.82.15-1.926.347-2.457.437-.532.09-4.092.216-7.913.28l-6.946.114-1.219-.735c-.67-.405-1.406-.783-1.635-.84-1.061-.268-6.271.657-9.227 1.639-1.87.62-1.965.633-3.786.523-1.707-.104-1.976-.076-3.127.326-.693.242-1.486.44-1.764.44-1.272 0-2.633-.84-3.217-1.985-.935-1.836-1.929-2.514-3.47-2.366-1.568.15-3.175 1.868-3.175 3.393 0 .937.323 1.227 1.837 1.647 1.313.363 1.876.76 1.547 1.09-.151.15-.368.112-.87-.155l-1.705-.902c-1.769-.934-3.046-.669-3.965.823-.28.454-.743.964-1.03 1.133-.646.38-1.702.394-2.399.03zm31.607-29.55c4.876-.926 8.12-1.434 11.93-1.867 4.104-.467 6.215-1.01 6.902-1.775.504-.561.497-.8-.043-1.441-.676-.804-1.663-1.103-4.196-1.272-1.245-.083-2.668-.231-3.16-.33-.494-.097-2.741-.38-4.995-.627-5.683-.623-7.64-.989-10.665-1.996-1.442-.48-2.997-.927-3.457-.994a3.24 3.24 0 0 1-1.492-.644c-2.514-2-5.465-.997-7.09 2.406-.83 1.738-.633 2.559.757 3.161 1.298.563 1.374.682 1.374 2.183 0 .946.082 1.457.282 1.742.312.445 2.7 1.606 3.304 1.606.21 0 .457.071.549.158.325.31.906.351 4.03.288 2.6-.053 3.658-.16 5.97-.598" style="fill:#fff;fill-opacity:1;fill-rule:nonzero;stroke-width:.175871;stroke-opacity:0" transform="translate(-9.053 -.838)"/></svg>