<svg xmlns="http://www.w3.org/2000/svg" xmlns:xlink="http://www.w3.org/1999/xlink" width="247.758" height="238.668" shape-rendering="crispEdges" viewBox="0 0 65.553 63.148"><metadata id="license" xmlns:rdf="http://www.w3.org/1999/02/22-rdf-syntax-ns#" xmlns:dc="http://purl.org/dc/elements/1.1/" xmlns:cc="http://creativecommons.org/ns#"><rdf:RDF><cc:Work><dc:format>image/svg+xml</dc:format><dc:type rdf:resource="http://purl.org/dc/dcmitype/StillImage" /><cc:license rdf:resource="https://creativecommons.org/licenses/by/4.0/" /><cc:attributionName>snipsnipsnip</cc:attributionName><dc:source>https://github.com/exteditor/exteditor/blob/v1/chrome/content/exteditor.png by Alexandre Feblot (MPL-2.0)</dc:source></cc:Work></rdf:RDF></metadata><defs><linearGradient id="b"><stop offset="0" style="stop-color:#bababa;stop-opacity:1"/><stop offset="1" style="stop-color:#cdcdcd;stop-opacity:1"/></linearGradient><linearGradient id="a"><stop offset="0" style="stop-color:#717171;stop-opacity:1"/><stop offset="1" style="stop-color:#e0e0e0;stop-opacity:1"/></linearGradient><linearGradient xlink:href="#a" id="d" x1="429.663" x2="436.553" y1="951.665" y2="938.273" gradientUnits="userSpaceOnUse"/><linearGradient xlink:href="#b" id="c" x1="435.68" x2="444.772" y1="850.833" y2="859.925" gradientUnits="userSpaceOnUse"/></defs><g style="display:inline"><path d="M402.061 902.827c.222-.627 77.095-93.497 77.299-93.382 22.184 14.734-56.113 116.679-77.299 93.382" style="fill:url(#c);fill-opacity:1;stroke:none;stroke-width:5.10371399;stroke-miterlimit:4;stroke-dasharray:none;stroke-opacity:1" transform="translate(-105.05 -207.676)scale(.26458)"/><path d="M463.178 968.612c-.033-.093-14.765-7.474-32.738-16.402l-32.679-16.233-.062-26.036c18.6 10.326 31.535 12.766 47.032 22.768 5.124 14.753 27.144 10.394 27.197 27.327 1.863 7.916-4.23 8.096-8.75 8.576" style="fill:url(#d);fill-opacity:1;stroke:none;stroke-width:2.40337467;stroke-miterlimit:4;stroke-dasharray:none;stroke-opacity:1" transform="translate(-105.05 -207.676)scale(.26458)"/><path d="M453.866 1018.75v-4.148c16.054-29.992 190.93-111.177 184.112-79.668.583.38-183.739 88.496-184.114 88.647-.185.075.002-1.588.002-4.831z" style="fill:#1f1603;fill-opacity:1;stroke:none;stroke-width:2.55185699;stroke-miterlimit:4;stroke-dasharray:none;stroke-opacity:1" transform="translate(-105.05 -207.676)scale(.26458)"/><path d="M130.249 208.758h1.323l1.323 1.323-1.323 1.323h-1.323l-1.324-1.323" style="fill:#c7c7c7;fill-opacity:1;stroke-width:2.64615893" transform="translate(-105.05 -207.676)"/><path d="M137.525 208.758h1.324v1.323l-1.324 1.323-1.323-1.323" style="fill:#afafaf;fill-opacity:1;stroke-width:2.64615893" transform="translate(-105.05 -207.676)"/><path d="m138.548 208.818 1.323-1.142h1.376l1.27 1.142v1.323l-1.323 1.323h-1.323l-1.323-1.323" style="fill:#ddd;fill-opacity:1;stroke-width:2.64615893" transform="translate(-105.05 -207.676)"/><path d="m142.216 208.788 1.985-.661.662 1.984-1.324 1.323-1.323-1.323" style="fill:#777;fill-opacity:1;stroke-width:2.64615893" transform="translate(-105.05 -207.676)"/><path d="m144.02 208.157 1.985.661.662 1.985-1.985-.662" style="fill:#8b8b8b;fill-opacity:1;stroke-width:2.64615893" transform="translate(-105.05 -207.676)"/><path d="m129.106 209.9 1.323 1.324v1.323l-1.323 1.323-1.323-1.323" style="fill:#d2d2d2;fill-opacity:1;stroke-width:2.64615893" transform="translate(-105.05 -207.676)"/><path d="M130.188 211.164h1.323l1.324 1.323-1.324 1.323-1.323-1.323" style="fill:#919191;fill-opacity:1;stroke-width:2.64615893" transform="translate(-105.05 -207.676)"/><path d="m131.361 211.254 1.323-1.323 1.985.661v2.647l-1.985-.662" style="fill:#a7a7a7;fill-opacity:1;stroke-width:2.64615893" transform="translate(-105.05 -207.676)"/><path d="m134.368 210.562 1.985-.661 1.323 1.323v1.323l-1.323 1.323-1.985-.662" style="fill:#a3a3a3;fill-opacity:1;stroke-width:2.64615893" transform="translate(-105.05 -207.676)"/><path d="m137.405 211.254 1.323-1.323 1.323 1.323-.661 1.985-1.985-.662" style="fill:#d2d2d2;fill-opacity:1;stroke-width:2.64615893" transform="translate(-105.05 -207.676)"/><path d="M139.87 211.194h1.324l.662 1.984h-2.647" style="fill:#fff;fill-opacity:1;stroke-width:2.64615893" transform="translate(-105.05 -207.676)"/><path d="m143.39 211.224 1.322-1.323 1.985.661-.662 1.985-1.323 1.323-1.323-1.323" style="fill:#595959;fill-opacity:1;stroke-width:2.64615893" transform="translate(-105.05 -207.676)"/><path d="m146.426 210.562 1.985-.661 1.323 1.323-1.323 1.323-1.323 1.323-1.323-1.323" style="fill:#e4e4e4;fill-opacity:1;stroke-width:2.64615893" transform="translate(-105.05 -207.676)"/><path d="m149.523 211.194 1.985-.662v2.646l-1.985.662-1.323-1.323" style="fill:#a8a8a8;fill-opacity:1;stroke-width:2.64615893" transform="translate(-105.05 -207.676)"/><path d="m151.207 210.532 1.985.662 1.323 1.323-1.323 1.323-1.985-.662" style="fill:#999;fill-opacity:1;stroke-width:2.64615893" transform="translate(-105.05 -207.676)"/><path d="m126.55 213.66 1.323-1.324 1.323 1.324.662 1.984h-2.647" style="fill:#e4e4e4;fill-opacity:1;stroke-width:2.64615893" transform="translate(-105.05 -207.676)"/><path d="m128.925 213.63 1.323-1.324 1.324 1.323 1.323 1.324-1.323 1.323-1.985-.662" style="fill:#bebebe;fill-opacity:1;stroke-width:2.64615893" transform="translate(-105.05 -207.676)"/><path d="m131.361 213.66 1.323-1.324 1.985.662v2.646l-1.985-.661" style="fill:#828282;fill-opacity:1;stroke-width:2.64615893" transform="translate(-105.05 -207.676)"/><path d="m134.368 212.938 1.985.661 1.323 1.323-1.323 1.324-1.985-.662" style="fill:#a1a1a1;fill-opacity:1;stroke-width:2.64615893" transform="translate(-105.05 -207.676)"/><path d="m136.172 213.66 1.323-1.324 1.985.662v2.646l-1.985-.661" style="fill:#a5a5a5;fill-opacity:1;stroke-width:2.64615893" transform="translate(-105.05 -207.676)"/><path d="M139.21 212.968h2.646v2.646h-2.647" style="fill:#717171;fill-opacity:1;stroke-width:2.64615893" transform="translate(-105.05 -207.676)"/><path d="m141.585 212.998 1.984-.662 1.324 1.324-.662 1.984h-2.646" style="fill:#797979;fill-opacity:1;stroke-width:2.64615893" transform="translate(-105.05 -207.676)"/><path d="m144.652 213.66 1.323-1.324 1.323 1.324-1.323 1.323-1.985.661" style="fill:#bfbfbf;fill-opacity:1;stroke-width:2.64615893" transform="translate(-105.05 -207.676)"/><path d="m147.088 213.63 1.323-1.324 1.323 1.323-.662 1.985-1.984.662-1.323-1.323" style="fill:#bcbcbc;fill-opacity:1;stroke-width:2.64615893" transform="translate(-105.05 -207.676)"/><path d="m151.267 212.968 1.985.661v1.324l-1.985.661" style="fill:#4b4b4b;fill-opacity:1;stroke-width:2.64615893" transform="translate(-105.05 -207.676)"/><path d="m153.011 213.63 1.324-1.324 1.984.662-.661 1.985-1.323 1.323-1.324-1.323" style="fill:#a1a1a1;fill-opacity:1;stroke-width:2.64615893" transform="translate(-105.05 -207.676)"/><path d="m156.109 212.938 1.984.661v1.323l-1.323 1.324-1.323-1.324" style="fill:#c5c5c5;fill-opacity:1;stroke-width:2.64615893" transform="translate(-105.05 -207.676)"/><path d="m125.437 216.035 1.985-.661v2.646h-2.646" style="fill:#ddd;fill-opacity:1;stroke-width:2.64615893" transform="translate(-105.05 -207.676)"/><path d="M127.181 215.374h2.647v2.646h-2.647" style="fill:#dedede;fill-opacity:1;stroke-width:2.64615893" transform="translate(-105.05 -207.676)"/><path d="m129.587 215.374 1.985.661.661 1.985h-2.646" style="fill:#dedede;fill-opacity:1;stroke-width:2.64615893" transform="translate(-105.05 -207.676)"/><path d="m131.361 216.065 1.323-1.323 1.985.662v2.646h-2.646" style="fill:#e5e5e5;fill-opacity:1;stroke-width:2.64615893" transform="translate(-105.05 -207.676)"/><path d="m134.368 215.343 1.985.662 1.323 1.323-1.323 1.323-1.985-.661" style="fill:#e1e1e1;fill-opacity:1;stroke-width:2.64615893" transform="translate(-105.05 -207.676)"/><path d="m136.142 216.035 1.323-1.323 1.985.662.661 1.984-1.323 1.323-1.323-1.323" style="fill:#a9a9a9;fill-opacity:1;stroke-width:2.64615893" transform="translate(-105.05 -207.676)"/><path d="M139.21 215.374h2.646v2.646l-1.985-.662" style="fill:#5d5d5d;fill-opacity:1;stroke-width:2.64615893" transform="translate(-105.05 -207.676)"/><path d="M141.615 215.374h2.646l-.661 1.984-1.985.662" style="fill:#7f7f7f;fill-opacity:1;stroke-width:2.64615893" transform="translate(-105.05 -207.676)"/><path d="m144.02 215.374 1.985-.662 1.323 1.323-.661 1.985-1.985.661-1.323-1.323" style="fill:#b6b6b6;fill-opacity:1;stroke-width:2.64615893" transform="translate(-105.05 -207.676)"/><path d="m147.088 216.035 1.984-.661v2.646h-2.646" style="fill:#757575;fill-opacity:1;stroke-width:2.64615893" transform="translate(-105.05 -207.676)"/><path d="M148.832 215.374h2.646l-.662 1.984-1.984.662" style="fill:#7c7c7c;fill-opacity:1;stroke-width:2.64615893" transform="translate(-105.05 -207.676)"/><path d="m151.237 215.374 1.985-.662 1.323 1.323v1.323l-1.323 1.323h-1.323l-1.323-1.323" style="fill:#818181;fill-opacity:1;stroke-width:2.64615893" transform="translate(-105.05 -207.676)"/><path d="m154.244 216.065 1.323-1.323 1.324 1.323-.662 1.985-1.985-.662" style="fill:#d8d8d8;fill-opacity:1;stroke-width:2.64615893" transform="translate(-105.05 -207.676)"/><path d="M148.029 233.884h1.323l1.323 1.323-1.323 1.323h-1.323l-1.323-1.323" style="fill:#545454;fill-opacity:1;stroke-width:2.64615893" transform="translate(-105.05 -207.676)"/><path d="M124.776 217.78h2.646v2.645h-2.646" style="fill:#dadada;fill-opacity:1;stroke-width:2.64615893" transform="translate(-105.05 -207.676)"/><path d="M127.181 217.78h2.647v2.645h-2.647" style="fill:#dedede;fill-opacity:1;stroke-width:2.64615893" transform="translate(-105.05 -207.676)"/><path d="M129.587 217.78h2.646v2.645h-2.646" style="fill:#dfdfdf;fill-opacity:1;stroke-width:2.64615893" transform="translate(-105.05 -207.676)"/><path d="M131.993 217.78h2.646v2.645h-2.646" style="fill:#e4e4e4;fill-opacity:1;stroke-width:2.64615893" transform="translate(-105.05 -207.676)"/><path d="m134.398 217.78 1.985.66.661 1.985h-2.646" style="fill:#e4e4e4;fill-opacity:1;stroke-width:2.64615893" transform="translate(-105.05 -207.676)"/><path d="m136.172 218.47 1.323-1.322 1.323 1.323.662 1.984h-2.646" style="fill:#c9c9c9;fill-opacity:1;stroke-width:2.64615893" transform="translate(-105.05 -207.676)"/><path d="m138.578 218.47 1.323-1.322 1.985.661v2.646h-2.647" style="fill:#b7b7b7;fill-opacity:1;stroke-width:2.64615893" transform="translate(-105.05 -207.676)"/><path d="m141.585 217.81 1.984-.662 1.324 1.323-.662 1.984h-2.646" style="fill:#c3c3c3;fill-opacity:1;stroke-width:2.64615893" transform="translate(-105.05 -207.676)"/><path d="m144.652 218.41 1.985-.661.661 1.985-1.323 1.323-1.985-.662" style="fill:#b8b8b8;fill-opacity:1;stroke-width:2.64615893" transform="translate(-105.05 -207.676)"/><path d="M146.426 217.78h2.646v2.645l-1.984-.661" style="fill:#5b5b5b;fill-opacity:1;stroke-width:2.64615893" transform="translate(-105.05 -207.676)"/><path d="m148.802 217.81 1.984-.662 1.323 1.323-1.323 1.323-1.984.661" style="fill:#636363;fill-opacity:1;stroke-width:2.64615893" transform="translate(-105.05 -207.676)"/><path d="M151.959 218.38h1.323v1.324l-1.323 1.323-1.323-1.323" style="fill:#9d9d9d;fill-opacity:1;stroke-width:2.64615893" transform="translate(-105.05 -207.676)"/><path d="m153.011 218.44 1.324-1.322 1.984.661-.661 1.985-1.323 1.323-1.324-1.323" style="fill:#a8a8a8;fill-opacity:1;stroke-width:2.64615893" transform="translate(-105.05 -207.676)"/><path d="m156.049 217.78 1.984-.662 1.323 1.323-1.323 1.323-1.323 1.323-1.323-1.323" style="fill:#848484;fill-opacity:1;stroke-width:2.64615893" transform="translate(-105.05 -207.676)"/><path d="M159.146 218.38h1.323l.661 1.985-1.984.662-1.323-1.323" style="fill:#373737;fill-opacity:1;stroke-width:2.64615893" transform="translate(-105.05 -207.676)"/><path d="m160.228 218.47 1.323-1.322 1.323 1.323.662 1.984h-2.646" style="fill:#252525;fill-opacity:1;stroke-width:2.64615893" transform="translate(-105.05 -207.676)"/><path d="M122.37 220.185h2.646v2.646h-2.646" style="fill:#d6d6d6;fill-opacity:1;stroke-width:2.64615893" transform="translate(-105.05 -207.676)"/><path d="M124.776 220.185h2.646v2.646h-2.646" style="fill:#d8d8d8;fill-opacity:1;stroke-width:2.64615893" transform="translate(-105.05 -207.676)"/><path d="M127.181 220.185h2.647v2.646h-2.647" style="fill:#d0d0d0;fill-opacity:1;stroke-width:2.64615893" transform="translate(-105.05 -207.676)"/><path d="M129.587 220.185h2.646v2.646h-2.646" style="fill:#d7d7d7;fill-opacity:1;stroke-width:2.64615893" transform="translate(-105.05 -207.676)"/><path d="M131.993 220.185h2.646v2.646h-2.646" style="fill:#dfdfdf;fill-opacity:1;stroke-width:2.64615893" transform="translate(-105.05 -207.676)"/><path d="M134.398 220.185h2.646v2.646h-2.646" style="fill:#e3e3e3;fill-opacity:1;stroke-width:2.64615893" transform="translate(-105.05 -207.676)"/><path d="M136.804 220.185h2.646v2.646h-2.646" style="fill:#e5e5e5;fill-opacity:1;stroke-width:2.64615893" transform="translate(-105.05 -207.676)"/><path d="M139.21 220.185h2.646v2.646h-2.647" style="fill:#e3e3e3;fill-opacity:1;stroke-width:2.64615893" transform="translate(-105.05 -207.676)"/><path d="M141.615 220.185h2.646v2.646h-2.646" style="fill:#dadada;fill-opacity:1;stroke-width:2.64615893" transform="translate(-105.05 -207.676)"/><path d="m143.99 220.155 1.985.661 1.323 1.323-1.323 1.323-1.985-.661" style="fill:#ccc;fill-opacity:1;stroke-width:2.64615893" transform="translate(-105.05 -207.676)"/><path d="m145.795 220.876 1.323-1.323 1.984.662v2.646l-1.984-.662" style="fill:#aeaeae;fill-opacity:1;stroke-width:2.64615893" transform="translate(-105.05 -207.676)"/><path d="m148.802 220.185 1.984-.662 1.323 1.323v1.323l-1.323 1.323-1.984-.661" style="fill:#a0a0a0;fill-opacity:1;stroke-width:2.64615893" transform="translate(-105.05 -207.676)"/><path d="m151.839 220.846 1.323-1.323 1.323 1.323v1.323l-1.323 1.323-1.323-1.323" style="fill:#9b9b9b;fill-opacity:1;stroke-width:2.64615893" transform="translate(-105.05 -207.676)"/><path d="m154.244 220.846 1.323-1.323 1.324 1.323v1.323l-1.324 1.323-1.323-1.323" style="fill:#767676;fill-opacity:1;stroke-width:2.64615893" transform="translate(-105.05 -207.676)"/><path d="m156.65 220.876 1.323-1.323 1.323 1.323-.661 1.985-1.985-.662" style="fill:#656565;fill-opacity:1;stroke-width:2.64615893" transform="translate(-105.05 -207.676)"/><path d="m159.116 220.846 1.984-.661v2.646h-2.646" style="fill:#7f7f7f;fill-opacity:1;stroke-width:2.64615893" transform="translate(-105.05 -207.676)"/><path d="M160.86 220.185h2.646v2.646h-2.646" style="fill:#848484;fill-opacity:1;stroke-width:2.64615893" transform="translate(-105.05 -207.676)"/><path d="m163.265 220.185 1.985.661.662 1.985h-2.647" style="fill:#666;fill-opacity:1;stroke-width:2.64615893" transform="translate(-105.05 -207.676)"/><path d="M119.965 222.59h2.646v2.646h-2.646" style="fill:#d3d3d3;fill-opacity:1;stroke-width:2.64615893" transform="translate(-105.05 -207.676)"/><path d="M122.37 222.59h2.646v2.646h-2.646" style="fill:#d5d5d5;fill-opacity:1;stroke-width:2.64615893" transform="translate(-105.05 -207.676)"/><path d="M124.776 222.59h2.646v2.646h-2.646" style="fill:#d8d8d8;fill-opacity:1;stroke-width:2.64615893" transform="translate(-105.05 -207.676)"/><path d="M127.181 222.59h2.647v2.646h-2.647" style="fill:#d9d9d9;fill-opacity:1;stroke-width:2.64615893" transform="translate(-105.05 -207.676)"/><path d="M129.587 222.59h2.646v2.646h-2.646" style="fill:#d9d9d9;fill-opacity:1;stroke-width:2.64615893" transform="translate(-105.05 -207.676)"/><path d="M131.993 222.59h2.646v2.646h-2.646" style="fill:#dadada;fill-opacity:1;stroke-width:2.64615893" transform="translate(-105.05 -207.676)"/><path d="M134.398 222.59h2.646v2.646h-2.646" style="fill:#dcdcdc;fill-opacity:1;stroke-width:2.64615893" transform="translate(-105.05 -207.676)"/><path d="M136.804 222.59h2.646v2.646h-2.646" style="fill:#e5e5e5;fill-opacity:1;stroke-width:2.64615893" transform="translate(-105.05 -207.676)"/><path d="M139.21 222.59h2.646v2.646h-2.647" style="fill:#e9e9e9;fill-opacity:1;stroke-width:2.64615893" transform="translate(-105.05 -207.676)"/><path d="M141.615 222.59h2.646v2.646h-2.646" style="fill:#ececec;fill-opacity:1;stroke-width:2.64615893" transform="translate(-105.05 -207.676)"/><path d="m144.02 222.59 1.985.662.662 1.984h-2.646" style="fill:#ebebeb;fill-opacity:1;stroke-width:2.64615893" transform="translate(-105.05 -207.676)"/><path d="m145.795 223.282 1.323-1.323 1.984.661v2.647h-2.646" style="fill:#e4e4e4;fill-opacity:1;stroke-width:2.64615893" transform="translate(-105.05 -207.676)"/><path d="m148.832 222.59 1.984.662.662 1.984h-2.646" style="fill:#e2e2e2;fill-opacity:1;stroke-width:2.64615893" transform="translate(-105.05 -207.676)"/><path d="m150.576 223.252 1.323-1.323 1.323 1.323 1.323 1.323-1.323 1.323-1.985-.662" style="fill:#c9c9c9;fill-opacity:1;stroke-width:2.64615893" transform="translate(-105.05 -207.676)"/><path d="m153.011 223.282 1.324-1.323 1.323 1.323.661 1.985-1.984-.662" style="fill:#a1a1a1;fill-opacity:1;stroke-width:2.64615893" transform="translate(-105.05 -207.676)"/><path d="m155.417 223.282 1.323-1.323 1.985.661v2.647h-2.646" style="fill:#6c6c6c;fill-opacity:1;stroke-width:2.64615893" transform="translate(-105.05 -207.676)"/><path d="M158.424 222.56h2.646l.662 1.985-1.323 1.323-1.985-.662" style="fill:#959595;fill-opacity:1;stroke-width:2.64615893" transform="translate(-105.05 -207.676)"/><path d="M160.86 222.59h2.646v2.646l-1.985-.661" style="fill:#848484;fill-opacity:1;stroke-width:2.64615893" transform="translate(-105.05 -207.676)"/><path d="M163.265 222.59h2.647v2.646h-2.647" style="fill:#959595;fill-opacity:1;stroke-width:2.64615893" transform="translate(-105.05 -207.676)"/><path d="m165.67 222.59 1.986.662.661 1.984h-2.646" style="fill:#282828;fill-opacity:1;stroke-width:2.64615893" transform="translate(-105.05 -207.676)"/><path d="m118.22 225.657 1.985-.661v2.646h-2.646" style="fill:#cdcdcd;fill-opacity:1;stroke-width:2.64615893" transform="translate(-105.05 -207.676)"/><path d="M119.965 224.996h2.646v2.646h-2.646" style="fill:#cfcfcf;fill-opacity:1;stroke-width:2.64615893" transform="translate(-105.05 -207.676)"/><path d="M122.37 224.996h2.646v2.646h-2.646" style="fill:#ccc;fill-opacity:1;stroke-width:2.64615893" transform="translate(-105.05 -207.676)"/><path d="M124.776 224.996h2.646v2.646h-2.646" style="fill:#d2d2d2;fill-opacity:1;stroke-width:2.64615893" transform="translate(-105.05 -207.676)"/><path d="M127.181 224.996h2.647v2.646h-2.647" style="fill:#d9d9d9;fill-opacity:1;stroke-width:2.64615893" transform="translate(-105.05 -207.676)"/><path d="M129.587 224.996h2.646v2.646h-2.646" style="fill:#dcdcdc;fill-opacity:1;stroke-width:2.64615893" transform="translate(-105.05 -207.676)"/><path d="M131.993 224.996h2.646v2.646h-2.646" style="fill:#e0e0e0;fill-opacity:1;stroke-width:2.64615893" transform="translate(-105.05 -207.676)"/><path d="M134.398 224.996h2.646v2.646h-2.646" style="fill:#e2e2e2;fill-opacity:1;stroke-width:2.64615893" transform="translate(-105.05 -207.676)"/><path d="M136.804 224.996h2.646v2.646h-2.646" style="fill:#e2e2e2;fill-opacity:1;stroke-width:2.64615893" transform="translate(-105.05 -207.676)"/><path d="M139.21 224.996h2.646v2.646h-2.647" style="fill:#e4e4e4;fill-opacity:1;stroke-width:2.64615893" transform="translate(-105.05 -207.676)"/><path d="M141.615 224.996h2.646v2.646h-2.646" style="fill:#e9e9e9;fill-opacity:1;stroke-width:2.64615893" transform="translate(-105.05 -207.676)"/><path d="M144.02 224.996h2.647v2.646h-2.646" style="fill:#eee;fill-opacity:1;stroke-width:2.64615893" transform="translate(-105.05 -207.676)"/><path d="M146.426 224.996h2.646v2.646h-2.646" style="fill:#f0f0f0;fill-opacity:1;stroke-width:2.64615893" transform="translate(-105.05 -207.676)"/><path d="M148.832 224.996h2.646v2.646h-2.646" style="fill:#e6e6e6;fill-opacity:1;stroke-width:2.64615893" transform="translate(-105.05 -207.676)"/><path d="m151.237 224.996 1.985.661.662 1.985h-2.647" style="fill:#d5d5d5;fill-opacity:1;stroke-width:2.64615893" transform="translate(-105.05 -207.676)"/><path d="m153.011 225.688 1.324-1.324 1.984.662v2.646h-2.646" style="fill:#c8c8c8;fill-opacity:1;stroke-width:2.64615893" transform="translate(-105.05 -207.676)"/><path d="M156.049 224.996h2.646v2.646h-2.646" style="fill:#dadada;fill-opacity:1;stroke-width:2.64615893" transform="translate(-105.05 -207.676)"/><path d="m158.484 224.996 1.985.661v1.324l-1.985.661" style="fill:#d2d2d2;fill-opacity:1;stroke-width:2.64615893" transform="translate(-105.05 -207.676)"/><path d="m160.228 225.657 1.323-1.323 1.985.662-.662 1.985-1.323 1.323-1.323-1.323" style="fill:#9e9e9e;fill-opacity:1;stroke-width:2.64615893" transform="translate(-105.05 -207.676)"/><path d="M163.295 224.966h2.647l-.662 1.984-1.323 1.324-1.323-1.324" style="fill:#7b7b7b;fill-opacity:1;stroke-width:2.64615893" transform="translate(-105.05 -207.676)"/><path d="m165.701 224.966 2.616.27-.631 1.714-1.323 1.324-1.324-1.324" style="fill:#1e1e1e;fill-opacity:1;stroke-width:2.64615893" transform="translate(-105.05 -207.676)"/><path d="m115.815 228.063 1.985-.661v2.646h-2.647" style="fill:#cbcbcb;fill-opacity:1;stroke-width:2.64615893" transform="translate(-105.05 -207.676)"/><path d="M117.559 227.402h2.646v2.646h-2.646" style="fill:#ccc;fill-opacity:1;stroke-width:2.64615893" transform="translate(-105.05 -207.676)"/><path d="M119.965 227.402h2.646v2.646h-2.646" style="fill:#cfcfcf;fill-opacity:1;stroke-width:2.64615893" transform="translate(-105.05 -207.676)"/><path d="M122.37 227.402h2.646v2.646h-2.646" style="fill:#ccc;fill-opacity:1;stroke-width:2.64615893" transform="translate(-105.05 -207.676)"/><path d="M124.776 227.402h2.646v2.646h-2.646" style="fill:#cdcdcd;fill-opacity:1;stroke-width:2.64615893" transform="translate(-105.05 -207.676)"/><path d="M127.181 227.402h2.647v2.646h-2.647" style="fill:#cecece;fill-opacity:1;stroke-width:2.64615893" transform="translate(-105.05 -207.676)"/><path d="M129.587 227.402h2.646v2.646h-2.646" style="fill:#d8d8d8;fill-opacity:1;stroke-width:2.64615893" transform="translate(-105.05 -207.676)"/><path d="M131.993 227.402h2.646v2.646h-2.646" style="fill:#dfdfdf;fill-opacity:1;stroke-width:2.64615893" transform="translate(-105.05 -207.676)"/><path d="M134.398 227.402h2.646v2.646h-2.646" style="fill:#e1e1e1;fill-opacity:1;stroke-width:2.64615893" transform="translate(-105.05 -207.676)"/><path d="M136.804 227.402h2.646v2.646h-2.646" style="fill:#e5e5e5;fill-opacity:1;stroke-width:2.64615893" transform="translate(-105.05 -207.676)"/><path d="M139.21 227.402h2.646v2.646h-2.647" style="fill:#e8e8e8;fill-opacity:1;stroke-width:2.64615893" transform="translate(-105.05 -207.676)"/><path d="M141.615 227.402h2.646v2.646h-2.646" style="fill:#e9e9e9;fill-opacity:1;stroke-width:2.64615893" transform="translate(-105.05 -207.676)"/><path d="M144.02 227.402h2.647v2.646h-2.646" style="fill:#eaeaea;fill-opacity:1;stroke-width:2.64615893" transform="translate(-105.05 -207.676)"/><path d="M146.426 227.402h2.646v2.646h-2.646" style="fill:#ededed;fill-opacity:1;stroke-width:2.64615893" transform="translate(-105.05 -207.676)"/><path d="M148.832 227.402h2.646v2.646h-2.646" style="fill:#ededed;fill-opacity:1;stroke-width:2.64615893" transform="translate(-105.05 -207.676)"/><path d="M151.237 227.402h2.647v2.646h-2.647" style="fill:#eaeaea;fill-opacity:1;stroke-width:2.64615893" transform="translate(-105.05 -207.676)"/><path d="M153.643 227.402h2.646v2.646h-2.646" style="fill:#e3e3e3;fill-opacity:1;stroke-width:2.64615893" transform="translate(-105.05 -207.676)"/><path d="M156.049 227.402h2.646l-.662 1.984-1.984.662" style="fill:#dfdfdf;fill-opacity:1;stroke-width:2.64615893" transform="translate(-105.05 -207.676)"/><path d="m158.454 227.402 1.985-.662 1.323 1.323-1.323 1.323-1.323 1.323-1.323-1.323" style="fill:#cbcbcb;fill-opacity:1;stroke-width:2.64615893" transform="translate(-105.05 -207.676)"/><path d="m161.521 228.063 1.323-1.323 1.323 1.323-1.323 1.323-1.323 1.323-1.323-1.323" style="fill:#8b8b8b;fill-opacity:1;stroke-width:2.64615893" transform="translate(-105.05 -207.676)"/><path d="m163.927 228.063 1.323-1.323 1.323 1.323-.661 1.985-1.985.661-1.323-1.323" style="fill:#343434;fill-opacity:1;stroke-width:2.64615893" transform="translate(-105.05 -207.676)"/><path d="m113.41 230.469 1.984-.662v2.646h-2.646" style="fill:#cfcfcf;fill-opacity:1;stroke-width:2.64615893" transform="translate(-105.05 -207.676)"/><path d="M115.153 229.807h2.647v2.646h-2.647" style="fill:#c5c5c5;fill-opacity:1;stroke-width:2.64615893" transform="translate(-105.05 -207.676)"/><path d="M117.559 229.807h2.646v2.646h-2.646" style="fill:#c8c8c8;fill-opacity:1;stroke-width:2.64615893" transform="translate(-105.05 -207.676)"/><path d="M119.965 229.807h2.646v2.646h-2.646" style="fill:#cdcdcd;fill-opacity:1;stroke-width:2.64615893" transform="translate(-105.05 -207.676)"/><path d="M122.37 229.807h2.646v2.646h-2.646" style="fill:#d1d1d1;fill-opacity:1;stroke-width:2.64615893" transform="translate(-105.05 -207.676)"/><path d="M124.776 229.807h2.646v2.646h-2.646" style="fill:#d3d3d3;fill-opacity:1;stroke-width:2.64615893" transform="translate(-105.05 -207.676)"/><path d="M127.181 229.807h2.647v2.646h-2.647" style="fill:#d4d4d4;fill-opacity:1;stroke-width:2.64615893" transform="translate(-105.05 -207.676)"/><path d="M129.587 229.807h2.646v2.646h-2.646" style="fill:#d2d2d2;fill-opacity:1;stroke-width:2.64615893" transform="translate(-105.05 -207.676)"/><path d="M131.993 229.807h2.646v2.646h-2.646" style="fill:#d4d4d4;fill-opacity:1;stroke-width:2.64615893" transform="translate(-105.05 -207.676)"/><path d="M134.398 229.807h2.646v2.646h-2.646" style="fill:#dadada;fill-opacity:1;stroke-width:2.64615893" transform="translate(-105.05 -207.676)"/><path d="M136.804 229.807h2.646v2.646h-2.646" style="fill:#e3e3e3;fill-opacity:1;stroke-width:2.64615893" transform="translate(-105.05 -207.676)"/><path d="M139.21 229.807h2.646v2.646h-2.647" style="fill:#e7e7e7;fill-opacity:1;stroke-width:2.64615893" transform="translate(-105.05 -207.676)"/><path d="M141.615 229.807h2.646v2.646h-2.646" style="fill:#eaeaea;fill-opacity:1;stroke-width:2.64615893" transform="translate(-105.05 -207.676)"/><path d="M144.02 229.807h2.647v2.646h-2.646" style="fill:#eee;fill-opacity:1;stroke-width:2.64615893" transform="translate(-105.05 -207.676)"/><path d="M146.426 229.807h2.646v2.646h-2.646" style="fill:#f0f0f0;fill-opacity:1;stroke-width:2.64615893" transform="translate(-105.05 -207.676)"/><path d="M148.832 229.807h2.646v2.646h-2.646" style="fill:#f1f1f1;fill-opacity:1;stroke-width:2.64615893" transform="translate(-105.05 -207.676)"/><path d="M151.237 229.807h2.647v2.646h-2.647" style="fill:#f6f6f6;fill-opacity:1;stroke-width:2.64615893" transform="translate(-105.05 -207.676)"/><path d="M153.643 229.807h2.646l-.661 1.985-1.985.661" style="fill:#fafafa;fill-opacity:1;stroke-width:2.64615893" transform="translate(-105.05 -207.676)"/><path d="m156.049 229.807 1.984-.661 1.323 1.323-1.323 1.323-1.323 1.323-1.323-1.323" style="fill:#e6e6e6;fill-opacity:1;stroke-width:2.64615893" transform="translate(-105.05 -207.676)"/><path d="m159.116 230.469 1.323-1.323 1.323 1.323-1.323 1.323-1.323 1.323-1.323-1.323" style="fill:#a2a2a2;fill-opacity:1;stroke-width:2.64615893" transform="translate(-105.05 -207.676)"/><path d="m161.521 230.469 1.323-1.323 1.323 1.323-1.323 1.323-1.323 1.323-1.323-1.323" style="fill:#2a2a2a;fill-opacity:1;stroke-width:2.64615893" transform="translate(-105.05 -207.676)"/><path d="m163.957 230.439 1.985-.662-.662 1.985-1.323 1.323-1.323-1.323" style="fill:#040404;fill-opacity:1;stroke-width:2.64615893" transform="translate(-105.05 -207.676)"/><path d="M112.748 232.213h2.646v2.646h-2.646" style="fill:#c3c3c3;fill-opacity:1;stroke-width:2.64615893" transform="translate(-105.05 -207.676)"/><path d="M115.153 232.213h2.647v2.646h-2.647" style="fill:#c2c2c2;fill-opacity:1;stroke-width:2.64615893" transform="translate(-105.05 -207.676)"/><path d="M117.559 232.213h2.646v2.646h-2.646" style="fill:#bbb;fill-opacity:1;stroke-width:2.64615893" transform="translate(-105.05 -207.676)"/><path d="M119.965 232.213h2.646v2.646h-2.646" style="fill:#c3c3c3;fill-opacity:1;stroke-width:2.64615893" transform="translate(-105.05 -207.676)"/><path d="M122.37 232.213h2.646v2.646h-2.646" style="fill:#cdcdcd;fill-opacity:1;stroke-width:2.64615893" transform="translate(-105.05 -207.676)"/><path d="M124.776 232.213h2.646v2.646h-2.646" style="fill:#d3d3d3;fill-opacity:1;stroke-width:2.64615893" transform="translate(-105.05 -207.676)"/><path d="M127.181 232.213h2.647v2.646h-2.647" style="fill:#d7d7d7;fill-opacity:1;stroke-width:2.64615893" transform="translate(-105.05 -207.676)"/><path d="M129.587 232.213h2.646v2.646h-2.646" style="fill:#d9d9d9;fill-opacity:1;stroke-width:2.64615893" transform="translate(-105.05 -207.676)"/><path d="M131.993 232.213h2.646v2.646h-2.646" style="fill:#dadada;fill-opacity:1;stroke-width:2.64615893" transform="translate(-105.05 -207.676)"/><path d="M134.398 232.213h2.646v2.646h-2.646" style="fill:#d9d9d9;fill-opacity:1;stroke-width:2.64615893" transform="translate(-105.05 -207.676)"/><path d="M136.804 232.213h2.646v2.646h-2.646" style="fill:#dbdbdb;fill-opacity:1;stroke-width:2.64615893" transform="translate(-105.05 -207.676)"/><path d="M139.21 232.213h2.646v2.646h-2.647" style="fill:#dfdfdf;fill-opacity:1;stroke-width:2.64615893" transform="translate(-105.05 -207.676)"/><path d="M141.615 232.213h2.646v2.646h-2.646" style="fill:#e9e9e9;fill-opacity:1;stroke-width:2.64615893" transform="translate(-105.05 -207.676)"/><path d="M144.02 232.213h2.647v2.646h-2.646" style="fill:#ececec;fill-opacity:1;stroke-width:2.64615893" transform="translate(-105.05 -207.676)"/><path d="M146.426 232.213h2.646v2.646h-2.646" style="fill:#f0f0f0;fill-opacity:1;stroke-width:2.64615893" transform="translate(-105.05 -207.676)"/><path d="M148.832 232.213h2.646v2.646h-2.646" style="fill:#f3f3f3;fill-opacity:1;stroke-width:2.64615893" transform="translate(-105.05 -207.676)"/><path d="M151.237 232.213h2.647l-.662 1.984-1.985.662" style="fill:#f8f8f8;fill-opacity:1;stroke-width:2.64615893" transform="translate(-105.05 -207.676)"/><path d="m153.643 232.213 1.985-.662 1.323 1.323-1.323 1.323-1.324 1.323-1.323-1.323" style="fill:#fcfcfc;fill-opacity:1;stroke-width:2.64615893" transform="translate(-105.05 -207.676)"/><path d="m156.71 232.874 1.323-1.323 1.323 1.323-1.323 1.323-1.323 1.323-1.323-1.323" style="fill:#ababab;fill-opacity:1;stroke-width:2.64615893" transform="translate(-105.05 -207.676)"/><path d="m159.116 232.874 1.323-1.323 1.323 1.323-1.323 1.323-1.323 1.323-1.323-1.323" style="fill:#535353;fill-opacity:1;stroke-width:2.64615893" transform="translate(-105.05 -207.676)"/><path d="m161.521 232.874 1.323-1.323 1.323 1.323-1.323 1.323-1.323 1.323-1.323-1.323" style="fill:#090909;fill-opacity:1;stroke-width:2.64615893" transform="translate(-105.05 -207.676)"/><path d="m111.004 235.28 1.984-.662v2.646h-2.646" style="fill:#bebebe;fill-opacity:1;stroke-width:2.64615893" transform="translate(-105.05 -207.676)"/><path d="M112.748 234.618h2.646v2.646h-2.646" style="fill:#c1c1c1;fill-opacity:1;stroke-width:2.64615893" transform="translate(-105.05 -207.676)"/><path d="M115.153 234.618h2.647v2.646h-2.647" style="fill:#c5c5c5;fill-opacity:1;stroke-width:2.64615893" transform="translate(-105.05 -207.676)"/><path d="M117.559 234.618h2.646v2.646h-2.646" style="fill:#c8c8c8;fill-opacity:1;stroke-width:2.64615893" transform="translate(-105.05 -207.676)"/><path d="M119.965 234.618h2.646v2.646h-2.646" style="fill:#c6c6c6;fill-opacity:1;stroke-width:2.64615893" transform="translate(-105.05 -207.676)"/><path d="M122.37 234.618h2.646v2.646h-2.646" style="fill:#c2c2c2;fill-opacity:1;stroke-width:2.64615893" transform="translate(-105.05 -207.676)"/><path d="M124.776 234.618h2.646v2.646h-2.646" style="fill:#c7c7c7;fill-opacity:1;stroke-width:2.64615893" transform="translate(-105.05 -207.676)"/><path d="M127.181 234.618h2.647v2.646h-2.647" style="fill:#d0d0d0;fill-opacity:1;stroke-width:2.64615893" transform="translate(-105.05 -207.676)"/><path d="M129.587 234.618h2.646v2.646h-2.646" style="fill:#d7d7d7;fill-opacity:1;stroke-width:2.64615893" transform="translate(-105.05 -207.676)"/><path d="M131.993 234.618h2.646v2.646h-2.646" style="fill:#dcdcdc;fill-opacity:1;stroke-width:2.64615893" transform="translate(-105.05 -207.676)"/><path d="M134.398 234.618h2.646v2.646h-2.646" style="fill:#dedede;fill-opacity:1;stroke-width:2.64615893" transform="translate(-105.05 -207.676)"/><path d="M136.804 234.618h2.646v2.646h-2.646" style="fill:#e0e0e0;fill-opacity:1;stroke-width:2.64615893" transform="translate(-105.05 -207.676)"/><path d="M139.21 234.618h2.646v2.646h-2.647" style="fill:#e1e1e1;fill-opacity:1;stroke-width:2.64615893" transform="translate(-105.05 -207.676)"/><path d="M141.615 234.618h2.646v2.646h-2.646" style="fill:#e0e0e0;fill-opacity:1;stroke-width:2.64615893" transform="translate(-105.05 -207.676)"/><path d="M144.02 234.618h2.647v2.646h-2.646" style="fill:#e6e6e6;fill-opacity:1;stroke-width:2.64615893" transform="translate(-105.05 -207.676)"/><path d="M146.426 234.618h2.646v2.646h-2.646" style="fill:#efefef;fill-opacity:1;stroke-width:2.64615893" transform="translate(-105.05 -207.676)"/><path d="M148.832 234.618h2.646v2.646h-2.646" style="fill:#f4f4f4;fill-opacity:1;stroke-width:2.64615893" transform="translate(-105.05 -207.676)"/><path d="m151.207 234.648 1.985-.661 1.323 1.323-1.323 1.323-1.985.662" style="fill:#f9f9f9;fill-opacity:1;stroke-width:2.64615893" transform="translate(-105.05 -207.676)"/><path d="m154.304 235.28 1.324-1.323 1.323 1.323-1.323 1.323-1.324 1.323-1.323-1.323" style="fill:silver;fill-opacity:1;stroke-width:2.64615893" transform="translate(-105.05 -207.676)"/><path d="m156.71 235.28 1.323-1.323 1.323 1.323-1.323 1.323-1.323 1.323-1.323-1.323" style="fill:#505050;fill-opacity:1;stroke-width:2.64615893" transform="translate(-105.05 -207.676)"/><path d="m159.116 235.28 1.323-1.323 1.323 1.323c-.824.942-1.736 1.79-2.646 2.646l-1.323-1.323" style="fill:#101010;fill-opacity:1;stroke-width:2.64615893" transform="translate(-105.05 -207.676)"/><path d="m108.598 237.685 1.985-.661v2.646h-2.646" style="fill:silver;fill-opacity:1;stroke-width:2.64615893" transform="translate(-105.05 -207.676)"/><path d="M110.342 237.024h2.646v2.646h-2.646" style="fill:#b7b7b7;fill-opacity:1;stroke-width:2.64615893" transform="translate(-105.05 -207.676)"/><path d="M112.748 237.024h2.646v2.646h-2.646" style="fill:#afafaf;fill-opacity:1;stroke-width:2.64615893" transform="translate(-105.05 -207.676)"/><path d="M115.153 237.024h2.647v2.646h-2.647" style="fill:#bebebe;fill-opacity:1;stroke-width:2.64615893" transform="translate(-105.05 -207.676)"/><path d="M117.559 237.024h2.646v2.646h-2.646" style="fill:#c7c7c7;fill-opacity:1;stroke-width:2.64615893" transform="translate(-105.05 -207.676)"/><path d="M119.965 237.024h2.646v2.646h-2.646" style="fill:#cacaca;fill-opacity:1;stroke-width:2.64615893" transform="translate(-105.05 -207.676)"/><path d="M122.37 237.024h2.646v2.646h-2.646" style="fill:#cdcdcd;fill-opacity:1;stroke-width:2.64615893" transform="translate(-105.05 -207.676)"/><path d="M124.776 237.024h2.646v2.646h-2.646" style="fill:#ccc;fill-opacity:1;stroke-width:2.64615893" transform="translate(-105.05 -207.676)"/><path d="M127.181 237.024h2.647v2.646h-2.647" style="fill:#ccc;fill-opacity:1;stroke-width:2.64615893" transform="translate(-105.05 -207.676)"/><path d="M129.587 237.024h2.646v2.646h-2.646" style="fill:#cbcbcb;fill-opacity:1;stroke-width:2.64615893" transform="translate(-105.05 -207.676)"/><path d="M131.993 237.024h2.646v2.646h-2.646" style="fill:#d6d6d6;fill-opacity:1;stroke-width:2.64615893" transform="translate(-105.05 -207.676)"/><path d="M134.398 237.024h2.646v2.646h-2.646" style="fill:#ddd;fill-opacity:1;stroke-width:2.64615893" transform="translate(-105.05 -207.676)"/><path d="M136.804 237.024h2.646v2.646h-2.646" style="fill:#e1e1e1;fill-opacity:1;stroke-width:2.64615893" transform="translate(-105.05 -207.676)"/><path d="M139.21 237.024h2.646v2.646h-2.647" style="fill:#e4e4e4;fill-opacity:1;stroke-width:2.64615893" transform="translate(-105.05 -207.676)"/><path d="M141.615 237.024h2.646v2.646h-2.646" style="fill:#e6e6e6;fill-opacity:1;stroke-width:2.64615893" transform="translate(-105.05 -207.676)"/><path d="M144.02 237.024h2.647v2.646h-2.646" style="fill:#e8e8e8;fill-opacity:1;stroke-width:2.64615893" transform="translate(-105.05 -207.676)"/><path d="M146.426 237.024h2.646v2.646h-2.646" style="fill:#f0f0f0;fill-opacity:1;stroke-width:2.64615893" transform="translate(-105.05 -207.676)"/><path d="M148.832 237.024h2.646l-.662 1.985-1.984.661" style="fill:#fbfbfb;fill-opacity:1;stroke-width:2.64615893" transform="translate(-105.05 -207.676)"/><path d="m151.237 237.024 1.985-.662 1.323 1.323-.661 1.985-1.985.662-1.323-1.323" style="fill:#cfcfcf;fill-opacity:1;stroke-width:2.64615893" transform="translate(-105.05 -207.676)"/><path d="m154.274 237.716 1.323-1.324 1.324 1.323-.662 1.985h-2.646" style="fill:#747474;fill-opacity:1;stroke-width:2.64615893" transform="translate(-105.05 -207.676)"/><path d="m156.68 237.716 1.323-1.324 1.323 1.323-.661 1.985h-2.647" style="fill:#241d1c;fill-opacity:1;stroke-width:2.64615893" transform="translate(-105.05 -207.676)"/><path d="m159.116 237.685 1.984-.661v2.646h-2.646" style="fill:#7b443b;fill-opacity:1;stroke-width:2.64615893" transform="translate(-105.05 -207.676)"/><path d="M160.86 237.024h2.646v2.646h-2.646" style="fill:#d4a39b;fill-opacity:1;stroke-width:2.64615893" transform="translate(-105.05 -207.676)"/><path d="M163.265 237.024h2.647l-.662 1.985-1.985.661" style="fill:#e2a095;fill-opacity:1;stroke-width:2.64615893" transform="translate(-105.05 -207.676)"/><path d="m165.701 236.994 1.985.661.661 1.985-1.984.662-1.324-1.324" style="fill:#bd4d3c;fill-opacity:1;stroke-width:2.64615893" transform="translate(-105.05 -207.676)"/><path d="m105.053 240.755 1.13-1.987 1.985.661.662 1.985-1.323 1.323-1.985-.661" style="fill:#d9d9d9;fill-opacity:1;stroke-width:2.64615893" transform="translate(-105.05 -207.676)"/><path d="M107.937 239.43h2.646v2.646l-1.985-.662" style="fill:#c1c1c1;fill-opacity:1;stroke-width:2.64615893" transform="translate(-105.05 -207.676)"/><path d="M110.342 239.43h2.646v2.646h-2.646" style="fill:silver;fill-opacity:1;stroke-width:2.64615893" transform="translate(-105.05 -207.676)"/><path d="M112.748 239.43h2.646v2.646h-2.646" style="fill:#bcbcbc;fill-opacity:1;stroke-width:2.64615893" transform="translate(-105.05 -207.676)"/><path d="M115.153 239.43h2.647v2.646h-2.647" style="fill:#b3b3b3;fill-opacity:1;stroke-width:2.64615893" transform="translate(-105.05 -207.676)"/><path d="M117.559 239.43h2.646v2.646h-2.646" style="fill:#b8b8b8;fill-opacity:1;stroke-width:2.64615893" transform="translate(-105.05 -207.676)"/><path d="M119.965 239.43h2.646v2.646h-2.646" style="fill:#bfbfbf;fill-opacity:1;stroke-width:2.64615893" transform="translate(-105.05 -207.676)"/><path d="M122.37 239.43h2.646v2.646h-2.646" style="fill:#cbcbcb;fill-opacity:1;stroke-width:2.64615893" transform="translate(-105.05 -207.676)"/><path d="M124.776 239.43h2.646v2.646h-2.646" style="fill:#cfcfcf;fill-opacity:1;stroke-width:2.64615893" transform="translate(-105.05 -207.676)"/><path d="M127.181 239.43h2.647v2.646h-2.647" style="fill:#d3d3d3;fill-opacity:1;stroke-width:2.64615893" transform="translate(-105.05 -207.676)"/><path d="M129.587 239.43h2.646v2.646h-2.646" style="fill:#d5d5d5;fill-opacity:1;stroke-width:2.64615893" transform="translate(-105.05 -207.676)"/><path d="M131.993 239.43h2.646v2.646h-2.646" style="fill:#d2d2d2;fill-opacity:1;stroke-width:2.64615893" transform="translate(-105.05 -207.676)"/><path d="M134.398 239.43h2.646v2.646h-2.646" style="fill:#d3d3d3;fill-opacity:1;stroke-width:2.64615893" transform="translate(-105.05 -207.676)"/><path d="M136.804 239.43h2.646v2.646h-2.646" style="fill:#d9d9d9;fill-opacity:1;stroke-width:2.64615893" transform="translate(-105.05 -207.676)"/><path d="M139.21 239.43h2.646v2.646h-2.647" style="fill:#e0e0e0;fill-opacity:1;stroke-width:2.64615893" transform="translate(-105.05 -207.676)"/><path d="M141.615 239.43h2.646v2.646h-2.646" style="fill:#e7e7e7;fill-opacity:1;stroke-width:2.64615893" transform="translate(-105.05 -207.676)"/><path d="M144.02 239.43h2.647v2.646h-2.646" style="fill:#e9e9e9;fill-opacity:1;stroke-width:2.64615893" transform="translate(-105.05 -207.676)"/><path d="M146.426 239.43h2.646l-.661 1.984-1.985.662" style="fill:#f7f7f7;fill-opacity:1;stroke-width:2.64615893" transform="translate(-105.05 -207.676)"/><path d="m148.832 239.43 1.984-.662 1.323 1.323-.661 1.985-1.985.661-1.323-1.323" style="fill:#ddd;fill-opacity:1;stroke-width:2.64615893" transform="translate(-105.05 -207.676)"/><path d="m151.899 240.091 1.985-.662v2.647h-2.647" style="fill:#918a77;fill-opacity:1;stroke-width:2.64615893" transform="translate(-105.05 -207.676)"/><path d="M153.643 239.43h2.646v2.646h-2.646" style="fill:#837c68;fill-opacity:1;stroke-width:2.64615893" transform="translate(-105.05 -207.676)"/><path d="M156.049 239.43h2.646v2.646h-2.646" style="fill:#c5c3bf;fill-opacity:1;stroke-width:2.64615893" transform="translate(-105.05 -207.676)"/><path d="M158.454 239.43h2.646v2.646h-2.646" style="fill:#dcccc9;fill-opacity:1;stroke-width:2.64615893" transform="translate(-105.05 -207.676)"/><path d="M160.86 239.43h2.646v2.646h-2.646" style="fill:#d08176;fill-opacity:1;stroke-width:2.64615893" transform="translate(-105.05 -207.676)"/><path d="m163.235 239.46 1.985-.662 1.323 1.323-1.323 1.323-1.985.662" style="fill:#be5140;fill-opacity:1;stroke-width:2.64615893" transform="translate(-105.05 -207.676)"/><path d="m166.363 240.061 1.984-.662-.661 1.985-1.323 1.323-1.324-1.323" style="fill:#862f21;fill-opacity:1;stroke-width:2.64615893" transform="translate(-105.05 -207.676)"/><path d="m168.107 239.4 1.984.661.662 1.985-1.985.661-1.323-1.323" style="fill:#4a1b13;fill-opacity:1;stroke-width:2.64615893" transform="translate(-105.05 -207.676)"/><path d="m105.531 241.835 1.985.662.661 1.984-1.984-.661" style="fill:#f8f8f8;fill-opacity:1;stroke-width:2.64615893" transform="translate(-105.05 -207.676)"/><path d="m107.305 242.527 1.323-1.323 1.985.661v2.646h-2.646" style="fill:#e2e2e2;fill-opacity:1;stroke-width:2.64615893" transform="translate(-105.05 -207.676)"/><path d="M110.312 241.805h2.646l.662 1.985-1.323 1.323-1.985-.662" style="fill:#cfcfcf;fill-opacity:1;stroke-width:2.64615893" transform="translate(-105.05 -207.676)"/><path d="M112.748 241.835h2.646v2.646l-1.985-.661" style="fill:silver;fill-opacity:1;stroke-width:2.64615893" transform="translate(-105.05 -207.676)"/><path d="M115.153 241.835h2.647v2.646h-2.647" style="fill:#c1c1c1;fill-opacity:1;stroke-width:2.64615893" transform="translate(-105.05 -207.676)"/><path d="M117.559 241.835h2.646v2.646h-2.646" style="fill:#c1c1c1;fill-opacity:1;stroke-width:2.64615893" transform="translate(-105.05 -207.676)"/><path d="M119.965 241.835h2.646v2.646h-2.646" style="fill:#bebebe;fill-opacity:1;stroke-width:2.64615893" transform="translate(-105.05 -207.676)"/><path d="M122.37 241.835h2.646v2.646h-2.646" style="fill:#bdbdbd;fill-opacity:1;stroke-width:2.64615893" transform="translate(-105.05 -207.676)"/><path d="M124.776 241.835h2.646v2.646h-2.646" style="fill:#c4c4c4;fill-opacity:1;stroke-width:2.64615893" transform="translate(-105.05 -207.676)"/><path d="M127.181 241.835h2.647v2.646h-2.647" style="fill:#d0d0d0;fill-opacity:1;stroke-width:2.64615893" transform="translate(-105.05 -207.676)"/><path d="M129.587 241.835h2.646v2.646h-2.646" style="fill:#d5d5d5;fill-opacity:1;stroke-width:2.64615893" transform="translate(-105.05 -207.676)"/><path d="M131.993 241.835h2.646v2.646h-2.646" style="fill:#d9d9d9;fill-opacity:1;stroke-width:2.64615893" transform="translate(-105.05 -207.676)"/><path d="M134.398 241.835h2.646v2.646h-2.646" style="fill:#dadada;fill-opacity:1;stroke-width:2.64615893" transform="translate(-105.05 -207.676)"/><path d="M136.804 241.835h2.646v2.646h-2.646" style="fill:#dbdbdb;fill-opacity:1;stroke-width:2.64615893" transform="translate(-105.05 -207.676)"/><path d="M139.21 241.835h2.646l-.662 1.985-1.985.661" style="fill:#dedede;fill-opacity:1;stroke-width:2.64615893" transform="translate(-105.05 -207.676)"/><path d="M141.645 241.805h2.646v2.646l-1.984.662-1.324-1.323" style="fill:#e5e5e5;fill-opacity:1;stroke-width:2.64615893" transform="translate(-105.05 -207.676)"/><path d="M144.02 241.835h2.647v2.646h-2.646" style="fill:#f0f0f0;fill-opacity:1;stroke-width:2.64615893" transform="translate(-105.05 -207.676)"/><path d="m146.396 241.865 1.985-.661 1.323 1.323-1.323 1.323-1.985.661" style="fill:#e8e4da;fill-opacity:1;stroke-width:2.64615893" transform="translate(-105.05 -207.676)"/><path d="m149.523 242.467 1.985-.662-.662 1.985-1.323 1.323-1.323-1.323" style="fill:#c7b88f;fill-opacity:1;stroke-width:2.64615893" transform="translate(-105.05 -207.676)"/><path d="M151.267 241.805h2.647v2.646l-1.985.662-1.323-1.323" style="fill:#d9c99e;fill-opacity:1;stroke-width:2.64615893" transform="translate(-105.05 -207.676)"/><path d="M153.643 241.835h2.646v2.646h-2.646" style="fill:#ecdcaf;fill-opacity:1;stroke-width:2.64615893" transform="translate(-105.05 -207.676)"/><path d="M156.049 241.835h2.646v2.646h-2.646" style="fill:#d2c49a;fill-opacity:1;stroke-width:2.64615893" transform="translate(-105.05 -207.676)"/><path d="M158.454 241.835h2.646v2.646h-2.646" style="fill:#8e8883;fill-opacity:1;stroke-width:2.64615893" transform="translate(-105.05 -207.676)"/><path d="M160.86 241.835h2.646v2.646h-2.646" style="fill:#9a584e;fill-opacity:1;stroke-width:2.64615893" transform="translate(-105.05 -207.676)"/><path d="m163.235 241.865 1.985-.661 1.323 1.323-.662 1.984h-2.646" style="fill:#802a1b;fill-opacity:1;stroke-width:2.64615893" transform="translate(-105.05 -207.676)"/><path d="m166.302 242.527 1.323-1.323 1.324 1.323-.662 1.984h-2.646" style="fill:#551c11;fill-opacity:1;stroke-width:2.64615893" transform="translate(-105.05 -207.676)"/><path d="m168.738 242.497 2.015-.451v2.165l-2.676.27" style="fill:#180805;fill-opacity:1;stroke-width:2.64615893" transform="translate(-105.05 -207.676)"/><path d="m110.312 244.21 1.985.662 1.323 1.323-1.323 1.323-1.985-.661" style="fill:#f8f8f8;fill-opacity:1;stroke-width:2.64615893" transform="translate(-105.05 -207.676)"/><path d="m112.116 244.932 1.323-1.323 1.985.662v2.646l-1.985-.662" style="fill:#ececec;fill-opacity:1;stroke-width:2.64615893" transform="translate(-105.05 -207.676)"/><path d="M115.153 244.24h2.647v2.647h-2.647" style="fill:#d4d4d4;fill-opacity:1;stroke-width:2.64615893" transform="translate(-105.05 -207.676)"/><path d="M117.559 244.24h2.646v2.647h-2.646" style="fill:#cacaca;fill-opacity:1;stroke-width:2.64615893" transform="translate(-105.05 -207.676)"/><path d="M119.965 244.24h2.646v2.647h-2.646" style="fill:#c7c7c7;fill-opacity:1;stroke-width:2.64615893" transform="translate(-105.05 -207.676)"/><path d="M122.37 244.24h2.646v2.647h-2.646" style="fill:#c9c9c9;fill-opacity:1;stroke-width:2.64615893" transform="translate(-105.05 -207.676)"/><path d="M124.776 244.24h2.646v2.647h-2.646" style="fill:#c7c7c7;fill-opacity:1;stroke-width:2.64615893" transform="translate(-105.05 -207.676)"/><path d="M127.181 244.24h2.647v2.647h-2.647" style="fill:#c1c1c1;fill-opacity:1;stroke-width:2.64615893" transform="translate(-105.05 -207.676)"/><path d="M129.587 244.24h2.646v2.647h-2.646" style="fill:#c8c8c8;fill-opacity:1;stroke-width:2.64615893" transform="translate(-105.05 -207.676)"/><path d="M131.993 244.24h2.646v2.647h-2.646" style="fill:#d3d3d3;fill-opacity:1;stroke-width:2.64615893" transform="translate(-105.05 -207.676)"/><path d="M134.398 244.24h2.646l-.661 1.985-1.985.662" style="fill:#d9d9d9;fill-opacity:1;stroke-width:2.64615893" transform="translate(-105.05 -207.676)"/><path d="M136.834 244.21h2.646v2.647l-1.985.661-1.323-1.323" style="fill:#ddd;fill-opacity:1;stroke-width:2.64615893" transform="translate(-105.05 -207.676)"/><path d="m139.18 244.27 1.984-.66 1.323 1.322-.662 1.985h-2.646" style="fill:#dedede;fill-opacity:1;stroke-width:2.64615893" transform="translate(-105.05 -207.676)"/><path d="m142.276 244.902 1.985-.661-.661 1.984-1.985.662" style="fill:#e6e0cf;fill-opacity:1;stroke-width:2.64615893" transform="translate(-105.05 -207.676)"/><path d="M144.05 244.21h2.647l-.662 1.985-1.323 1.323-1.323-1.323" style="fill:#ede1be;fill-opacity:1;stroke-width:2.64615893" transform="translate(-105.05 -207.676)"/><path d="m146.426 244.24 1.985-.66 1.323 1.322-.662 1.985-1.984.661-1.323-1.323" style="fill:#ebd9a8;fill-opacity:1;stroke-width:2.64615893" transform="translate(-105.05 -207.676)"/><path d="m149.463 244.932 1.323-1.323 1.323 1.323-1.323 1.323-1.984.662" style="fill:#f2e3b6;fill-opacity:1;stroke-width:2.64615893" transform="translate(-105.05 -207.676)"/><path d="m151.929 244.872 1.985-.661v2.646l-1.985.661-1.323-1.323" style="fill:#ddc47a;fill-opacity:1;stroke-width:2.64615893" transform="translate(-105.05 -207.676)"/><path d="M153.643 244.24h2.646l-.661 1.985-1.985.662" style="fill:#c9a64d;fill-opacity:1;stroke-width:2.64615893" transform="translate(-105.05 -207.676)"/><path d="M156.079 244.21h2.646v2.647l-1.985.661-1.323-1.323" style="fill:#aa7b1d;fill-opacity:1;stroke-width:2.64615893" transform="translate(-105.05 -207.676)"/><path d="M158.454 244.24h2.646v2.647h-2.646" style="fill:#786747;fill-opacity:1;stroke-width:2.64615893" transform="translate(-105.05 -207.676)"/><path d="M160.86 244.24h2.646v2.647h-2.646" style="fill:#5c2e24;fill-opacity:1;stroke-width:2.64615893" transform="translate(-105.05 -207.676)"/><path d="M163.265 244.24h2.647l-.662 1.985-1.985.662" style="fill:#37110a;fill-opacity:1;stroke-width:2.64615893" transform="translate(-105.05 -207.676)"/><path d="M165.701 244.21h2.646l-.661 1.985-1.323 1.323-1.324-1.323" style="fill:#050201;fill-opacity:1;stroke-width:2.64615893" transform="translate(-105.05 -207.676)"/><path d="M168.107 244.21h2.646l-.662 1.985-1.293 1.173-1.353-1.173" style="fill:#000;fill-opacity:1;stroke-width:2.64615893" transform="translate(-105.05 -207.676)"/><path d="m112.116 247.338 1.323-1.323 1.985.661v2.647h-2.646" style="fill:#f7f7f7;fill-opacity:1;stroke-width:2.64615893" transform="translate(-105.05 -207.676)"/><path d="M115.123 246.616h2.646l.662 1.985-1.323 1.323-1.985-.662" style="fill:#f7f7f7;fill-opacity:1;stroke-width:2.64615893" transform="translate(-105.05 -207.676)"/><path d="M117.559 246.646h2.646v2.646l-1.985-.661" style="fill:#e7e7e7;fill-opacity:1;stroke-width:2.64615893" transform="translate(-105.05 -207.676)"/><path d="M119.965 246.646h2.646v2.646h-2.646" style="fill:#dcdcdc;fill-opacity:1;stroke-width:2.64615893" transform="translate(-105.05 -207.676)"/><path d="M122.37 246.646h2.646v2.646h-2.646" style="fill:#c9c9c9;fill-opacity:1;stroke-width:2.64615893" transform="translate(-105.05 -207.676)"/><path d="M124.776 246.646h2.646v2.646h-2.646" style="fill:#ccc;fill-opacity:1;stroke-width:2.64615893" transform="translate(-105.05 -207.676)"/><path d="M127.181 246.646h2.647v2.646h-2.647" style="fill:#cecece;fill-opacity:1;stroke-width:2.64615893" transform="translate(-105.05 -207.676)"/><path d="M129.587 246.646h2.646l-.661 1.985-1.985.661" style="fill:#ccc;fill-opacity:1;stroke-width:2.64615893" transform="translate(-105.05 -207.676)"/><path d="M132.023 246.616h2.646v2.646l-1.985.662-1.323-1.323" style="fill:#cbcbcb;fill-opacity:1;stroke-width:2.64615893" transform="translate(-105.05 -207.676)"/><path d="m134.368 246.676 1.985-.661 1.323 1.323-.662 1.985h-2.646" style="fill:#cecece;fill-opacity:1;stroke-width:2.64615893" transform="translate(-105.05 -207.676)"/><path d="m137.465 247.308 1.985-.662-.662 1.985-1.984.661" style="fill:#d7d2c3;fill-opacity:1;stroke-width:2.64615893" transform="translate(-105.05 -207.676)"/><path d="M139.24 246.616h2.646l-.662 1.985-1.323 1.323-1.323-1.323" style="fill:#ded0a8;fill-opacity:1;stroke-width:2.64615893" transform="translate(-105.05 -207.676)"/><path d="m141.615 246.646 1.985-.661 1.323 1.323-.662 1.984-1.985.662-1.323-1.323" style="fill:#efe1ba;fill-opacity:1;stroke-width:2.64615893" transform="translate(-105.05 -207.676)"/><path d="m144.652 247.338 1.323-1.323 1.323 1.323-.661 1.985h-2.647" style="fill:#f1dfac;fill-opacity:1;stroke-width:2.64615893" transform="translate(-105.05 -207.676)"/><path d="m147.088 247.308 1.984-.662v2.646h-2.646" style="fill:#e4ce89;fill-opacity:1;stroke-width:2.64615893" transform="translate(-105.05 -207.676)"/><path d="m148.802 246.676 1.984-.661 1.323 1.323-1.323 1.323-1.984.662" style="fill:#c1a14f;fill-opacity:1;stroke-width:2.64615893" transform="translate(-105.05 -207.676)"/><path d="m151.929 247.278 1.985-.662v2.646l-1.985.662-1.323-1.323" style="fill:#bc8d2a;fill-opacity:1;stroke-width:2.64615893" transform="translate(-105.05 -207.676)"/><path d="m153.613 246.676 1.984-.661 1.324 1.323-.662 1.985h-2.646" style="fill:#a67317;fill-opacity:1;stroke-width:2.64615893" transform="translate(-105.05 -207.676)"/><path d="m156.71 247.308 1.985-.662-.662 1.985-1.984.661" style="fill:#885c0f;fill-opacity:1;stroke-width:2.64615893" transform="translate(-105.05 -207.676)"/><path d="M158.484 246.616h2.646l-.661 1.985-1.323 1.323-1.323-1.323" style="fill:#403217;fill-opacity:1;stroke-width:2.64615893" transform="translate(-105.05 -207.676)"/><path d="M160.89 246.616h2.646l-.662 1.985-1.323 1.323-1.323-1.323" style="fill:#160c08;fill-opacity:1;stroke-width:2.64615893" transform="translate(-105.05 -207.676)"/><path d="m116.927 249.744 1.324-1.324 1.984.662v2.646h-2.646" style="fill:#e0e0e0;fill-opacity:1;stroke-width:2.64615893" transform="translate(-105.05 -207.676)"/><path d="M119.934 249.022h2.647l.661 1.984-1.323 1.324-1.985-.662" style="fill:#efefef;fill-opacity:1;stroke-width:2.64615893" transform="translate(-105.05 -207.676)"/><path d="M122.37 249.052h2.646v2.646l-1.984-.661" style="fill:#f1f1f1;fill-opacity:1;stroke-width:2.64615893" transform="translate(-105.05 -207.676)"/><path d="M124.776 249.052h2.646l-.662 1.985-1.984.661" style="fill:#dedede;fill-opacity:1;stroke-width:2.64615893" transform="translate(-105.05 -207.676)"/><path d="M127.211 249.022h2.647l-.662 1.984-1.323 1.324-1.323-1.324" style="fill:#d5d5d5;fill-opacity:1;stroke-width:2.64615893" transform="translate(-105.05 -207.676)"/><path d="m129.587 249.052 1.985-.662 1.323 1.323-.662 1.985-1.984.662-1.324-1.323" style="fill:#cfcecb;fill-opacity:1;stroke-width:2.64615893" transform="translate(-105.05 -207.676)"/><path d="m132.654 249.713 1.985-.661-.662 1.985-1.984.661" style="fill:#d4ccb7;fill-opacity:1;stroke-width:2.64615893" transform="translate(-105.05 -207.676)"/><path d="M134.428 249.022h2.646l-.661 1.984-1.323 1.324-1.323-1.324" style="fill:#dfd1a9;fill-opacity:1;stroke-width:2.64615893" transform="translate(-105.05 -207.676)"/><path d="m136.804 249.052 1.984-.662 1.323 1.323-.661 1.985-1.985.662-1.323-1.323" style="fill:#f0dead;fill-opacity:1;stroke-width:2.64615893" transform="translate(-105.05 -207.676)"/><path d="m139.84 249.744 1.324-1.324 1.323 1.324-1.323 1.323-1.985.661" style="fill:#f4e7c0;fill-opacity:1;stroke-width:2.64615893" transform="translate(-105.05 -207.676)"/><path d="m142.307 249.683 1.984-.661v2.646l-1.984.662-1.324-1.324" style="fill:#dbc178;fill-opacity:1;stroke-width:2.64615893" transform="translate(-105.05 -207.676)"/><path d="M144.02 249.052h2.647l-.662 1.985-1.984.661" style="fill:#c6a44e;fill-opacity:1;stroke-width:2.64615893" transform="translate(-105.05 -207.676)"/><path d="M146.456 249.022h2.646v2.646l-1.984.662-1.323-1.324" style="fill:#b08022;fill-opacity:1;stroke-width:2.64615893" transform="translate(-105.05 -207.676)"/><path d="m148.802 249.082 1.984-.662 1.323 1.324-.661 1.984h-2.646" style="fill:#af7816;fill-opacity:1;stroke-width:2.64615893" transform="translate(-105.05 -207.676)"/><path d="m151.899 249.713 1.985-.661v2.646h-2.647" style="fill:#81580f;fill-opacity:1;stroke-width:2.64615893" transform="translate(-105.05 -207.676)"/><path d="M153.643 249.052h2.646v2.646h-2.646" style="fill:#5a3e09;fill-opacity:1;stroke-width:2.64615893" transform="translate(-105.05 -207.676)"/><path d="m156.018 249.082 1.985-.662 1.323 1.324-1.323 1.323-1.985.661" style="fill:#201603;fill-opacity:1;stroke-width:2.64615893" transform="translate(-105.05 -207.676)"/><path d="m121.739 252.15 1.323-1.324 1.984.662v2.646H122.4" style="fill:#dcdcdc;fill-opacity:1;stroke-width:2.64615893" transform="translate(-105.05 -207.676)"/><path d="m124.746 251.488 1.984-.662 1.323 1.323-.661 1.985h-2.646" style="fill:#e9e9e9;fill-opacity:1;stroke-width:2.64615893" transform="translate(-105.05 -207.676)"/><path d="m127.813 252.15 1.323-1.324 1.323 1.323-1.323 1.323-1.985.662" style="fill:#e3decf;fill-opacity:1;stroke-width:2.64615893" transform="translate(-105.05 -207.676)"/><path d="m130.279 252.089 1.984-.662-.661 1.985-1.323 1.323-1.324-1.323" style="fill:#e1d5b2;fill-opacity:1;stroke-width:2.64615893" transform="translate(-105.05 -207.676)"/><path d="m131.993 251.457 1.984-.661 1.323 1.323-.661 1.985-1.985.661-1.323-1.323" style="fill:#f0e4c5;fill-opacity:1;stroke-width:2.64615893" transform="translate(-105.05 -207.676)"/><path d="m135.03 252.15 1.323-1.324 1.323 1.323-.662 1.985h-2.646" style="fill:#f3e4b8;fill-opacity:1;stroke-width:2.64615893" transform="translate(-105.05 -207.676)"/><path d="m137.465 252.119 1.985-.662v2.647h-2.646" style="fill:#e3ce8c;fill-opacity:1;stroke-width:2.64615893" transform="translate(-105.05 -207.676)"/><path d="m139.18 251.488 1.984-.662 1.323 1.323-1.323 1.323-1.985.662" style="fill:#c4a656;fill-opacity:1;stroke-width:2.64615893" transform="translate(-105.05 -207.676)"/><path d="m142.307 252.089 1.984-.662v2.647l-1.984.661-1.324-1.323" style="fill:#ba8a29;fill-opacity:1;stroke-width:2.64615893" transform="translate(-105.05 -207.676)"/><path d="m143.99 251.488 1.985-.662 1.323 1.323-.661 1.985h-2.647" style="fill:#ac7819;fill-opacity:1;stroke-width:2.64615893" transform="translate(-105.05 -207.676)"/><path d="m147.088 252.119 1.984-.662v2.647h-2.646" style="fill:#936412;fill-opacity:1;stroke-width:2.64615893" transform="translate(-105.05 -207.676)"/><path d="M148.832 251.457h2.646v2.647h-2.646" style="fill:#66470c;fill-opacity:1;stroke-width:2.64615893" transform="translate(-105.05 -207.676)"/><path d="M151.237 251.457h2.647l-.662 1.985-1.985.662" style="fill:#221804;fill-opacity:1;stroke-width:2.64615893" transform="translate(-105.05 -207.676)"/><path d="M124.806 253.833h2.646l-.662 1.985-1.323 1.323-1.323-1.323" style="fill:#cfc39e;fill-opacity:1;stroke-width:2.64615893" transform="translate(-105.05 -207.676)"/><path d="m127.181 253.863 1.985-.661 1.323 1.323-.661 1.984-1.985.662-1.323-1.323" style="fill:#f3e6bc;fill-opacity:1;stroke-width:2.64615893" transform="translate(-105.05 -207.676)"/><path d="m130.218 254.555 1.324-1.323 1.323 1.323-1.323 1.323-1.985.661" style="fill:#f4e7bd;fill-opacity:1;stroke-width:2.64615893" transform="translate(-105.05 -207.676)"/><path d="m132.684 254.495 1.985-.662v2.646l-1.985.662-1.323-1.323" style="fill:#dac277;fill-opacity:1;stroke-width:2.64615893" transform="translate(-105.05 -207.676)"/><path d="M134.398 253.863h2.646l-.661 1.985-1.985.661" style="fill:#c4a24c;fill-opacity:1;stroke-width:2.64615893" transform="translate(-105.05 -207.676)"/><path d="M136.834 253.833h2.646v2.646l-1.985.662-1.323-1.323" style="fill:#b58829;fill-opacity:1;stroke-width:2.64615893" transform="translate(-105.05 -207.676)"/><path d="m139.18 253.893 1.984-.661 1.323 1.323-.662 1.984h-2.646" style="fill:#b47d1b;fill-opacity:1;stroke-width:2.64615893" transform="translate(-105.05 -207.676)"/><path d="m142.276 254.525 1.985-.662v2.646h-2.646" style="fill:#875d11;fill-opacity:1;stroke-width:2.64615893" transform="translate(-105.05 -207.676)"/><path d="M144.02 253.863h2.647v2.646h-2.646" style="fill:#5a3f0c;fill-opacity:1;stroke-width:2.64615893" transform="translate(-105.05 -207.676)"/><path d="M146.426 253.863h2.646l-.661 1.985-1.985.661" style="fill:#1f1603;fill-opacity:1;stroke-width:2.64615893" transform="translate(-105.05 -207.676)"/><path d="m122.37 256.269 1.985-.662 1.323 1.323-.662 1.985-1.984.661-1.323-1.323" style="fill:#eadcb0;fill-opacity:1;stroke-width:2.64615893" transform="translate(-105.05 -207.676)"/><path d="m125.407 256.96 1.323-1.323 1.323 1.323-.661 1.985h-2.646" style="fill:#f3e5b9;fill-opacity:1;stroke-width:2.64615893" transform="translate(-105.05 -207.676)"/><path d="m127.843 256.93 1.985-.661v2.646h-2.647" style="fill:#e2cd89;fill-opacity:1;stroke-width:2.64615893" transform="translate(-105.05 -207.676)"/><path d="m129.557 256.299 1.985-.662 1.323 1.323-1.323 1.323-1.985.662" style="fill:#c4a756;fill-opacity:1;stroke-width:2.64615893" transform="translate(-105.05 -207.676)"/><path d="m132.684 256.9 1.985-.661v2.646l-1.985.661-1.323-1.323" style="fill:#bb8e2e;fill-opacity:1;stroke-width:2.64615893" transform="translate(-105.05 -207.676)"/><path d="m134.368 256.299 1.985-.662 1.323 1.323-.662 1.985h-2.646" style="fill:#b3801f;fill-opacity:1;stroke-width:2.64615893" transform="translate(-105.05 -207.676)"/><path d="m137.465 256.93 1.985-.661v2.646h-2.646" style="fill:#936614;fill-opacity:1;stroke-width:2.64615893" transform="translate(-105.05 -207.676)"/><path d="M139.21 256.269h2.646v2.646h-2.647" style="fill:#66470d;fill-opacity:1;stroke-width:2.64615893" transform="translate(-105.05 -207.676)"/><path d="M141.615 256.269h2.646l-.661 1.984-1.985.662" style="fill:#201604;fill-opacity:1;stroke-width:2.64615893" transform="translate(-105.05 -207.676)"/><path d="m118.19 259.306 1.985-.662.662 1.985-1.323 1.323-1.985-.662" style="fill:#e4cdaf;fill-opacity:1;stroke-width:2.64615893" transform="translate(-105.05 -207.676)"/><path d="m119.934 258.704 1.985-.661 1.323 1.323-.661 1.985-1.985-.662" style="fill:#ebd7a9;fill-opacity:1;stroke-width:2.64615893" transform="translate(-105.05 -207.676)"/><path d="m123.032 259.336 1.984-.662-.661 1.985-1.985.661" style="fill:#d9bf6e;fill-opacity:1;stroke-width:2.64615893" transform="translate(-105.05 -207.676)"/><path d="M124.806 258.644h2.646l-.662 1.985-1.323 1.323-1.323-1.323" style="fill:#c8a54d;fill-opacity:1;stroke-width:2.64615893" transform="translate(-105.05 -207.676)"/><path d="M127.211 258.644h2.647v2.646l-1.985.662-1.323-1.323" style="fill:#ba8a2a;fill-opacity:1;stroke-width:2.64615893" transform="translate(-105.05 -207.676)"/><path d="m129.557 258.704 1.985-.661 1.323 1.323-.662 1.985h-2.646" style="fill:#ba821d;fill-opacity:1;stroke-width:2.64615893" transform="translate(-105.05 -207.676)"/><path d="m132.654 259.336 1.985-.662v2.646h-2.646" style="fill:#8f6415;fill-opacity:1;stroke-width:2.64615893" transform="translate(-105.05 -207.676)"/><path d="M134.398 258.674h2.646l-.661 1.985-1.985.661" style="fill:#563c0c;fill-opacity:1;stroke-width:2.64615893" transform="translate(-105.05 -207.676)"/><path d="M136.834 258.644h2.646l-.662 1.985-1.323 1.323-1.323-1.323" style="fill:#201807;fill-opacity:1;stroke-width:2.64615893" transform="translate(-105.05 -207.676)"/><path d="m115.815 261.741 1.985-.661v2.646h-2.647" style="fill:#e0d3c3;fill-opacity:1;stroke-width:2.64615893" transform="translate(-105.05 -207.676)"/><path d="m117.589 261.08 1.985.661v1.324l-1.985.661" style="fill:#d1c7bc;fill-opacity:1;stroke-width:2.64615893" transform="translate(-105.05 -207.676)"/><path d="m119.333 261.741 1.323-1.323 1.985.662v2.646l-1.985.662-1.323-1.323" style="fill:#c6aa82;fill-opacity:1;stroke-width:2.64615893" transform="translate(-105.05 -207.676)"/><path d="m122.34 261.11 1.985-.662 1.323 1.323-.662 1.985h-2.646" style="fill:#cca241;fill-opacity:1;stroke-width:2.64615893" transform="translate(-105.05 -207.676)"/><path d="m125.407 261.771 1.323-1.323 1.323 1.323-.661 1.985h-2.646" style="fill:#c18d26;fill-opacity:1;stroke-width:2.64615893" transform="translate(-105.05 -207.676)"/><path d="m127.843 261.741 1.985-.661v2.646h-2.647" style="fill:#946716;fill-opacity:1;stroke-width:2.64615893" transform="translate(-105.05 -207.676)"/><path d="M129.587 261.08h2.646v2.646h-2.646" style="fill:#583d0c;fill-opacity:1;stroke-width:2.64615893" transform="translate(-105.05 -207.676)"/><path d="M131.993 261.08h2.646l-.662 1.984-1.984.662" style="fill:#221905;fill-opacity:1;stroke-width:2.64615893" transform="translate(-105.05 -207.676)"/><path d="m113.38 264.117 1.984-.662.661 1.985-1.323 1.323-1.984-.661" style="fill:#5d5449;fill-opacity:1;stroke-width:2.64615893" transform="translate(-105.05 -207.676)"/><path d="M115.153 263.485h2.647v2.647l-1.985-.662" style="fill:#8b8074;fill-opacity:1;stroke-width:2.64615893" transform="translate(-105.05 -207.676)"/><path d="m117.529 263.516 1.985-.662 1.323 1.323-.662 1.985h-2.646" style="fill:#947d62;fill-opacity:1;stroke-width:2.64615893" transform="translate(-105.05 -207.676)"/><path d="m120.626 264.147 1.985-.662v2.647h-2.646" style="fill:#9b7b55;fill-opacity:1;stroke-width:2.64615893" transform="translate(-105.05 -207.676)"/><path d="M122.37 263.485h2.646v2.647h-2.646" style="fill:#997742;fill-opacity:1;stroke-width:2.64615893" transform="translate(-105.05 -207.676)"/><path d="M124.776 263.485h2.646l-.662 1.985-1.984.662" style="fill:#523d15;fill-opacity:1;stroke-width:2.64615893" transform="translate(-105.05 -207.676)"/><path d="m110.974 266.553 1.984-.662v2.646l-1.984-.661" style="fill:#14100a;fill-opacity:1;stroke-width:2.64615893" transform="translate(-105.05 -207.676)"/><path d="m112.718 265.861 1.984.662 1.323 1.323-1.323 1.323-1.984-.662" style="fill:#19140f;fill-opacity:1;stroke-width:2.64615893" transform="translate(-105.05 -207.676)"/><path d="m114.492 266.553 1.323-1.323 1.985.661.661 1.985-1.323 1.323-1.323-1.323" style="fill:#31291e;fill-opacity:1;stroke-width:2.64615893" transform="translate(-105.05 -207.676)"/><path d="M117.559 265.891h2.646v2.646l-1.985-.661" style="fill:#58462e;fill-opacity:1;stroke-width:2.64615893" transform="translate(-105.05 -207.676)"/><path d="M119.965 265.891h2.646l-.662 1.985-1.984.661" style="fill:#443624;fill-opacity:1;stroke-width:2.64615893" transform="translate(-105.05 -207.676)"/><path d="m114.522 268.988 1.323-1.323 1.323 1.323.662 1.985-1.985-.662" style="fill:#000;fill-opacity:1;stroke-width:2.64615893" transform="translate(-105.05 -207.676)"/><path d="m116.927 268.988 1.324-1.323 1.984.662-.018 2.496-2.387.15" style="fill:#000;fill-opacity:1;stroke-width:2.64615893" transform="translate(-105.05 -207.676)"/><path d="M121.384 257.69c.6-.6 1.093-1.09 1.095-1.085 0 .004-.12.373-.27.821l-.27.814-.815.271c-.447.15-.818.272-.823.272s.482-.492 1.083-1.093" style="fill:#eadcb0;fill-opacity:1;stroke:none;stroke-width:.13129146;stroke-miterlimit:4;stroke-dasharray:none;stroke-opacity:1" transform="translate(-105.05 -207.676)"/><path d="m168.95 239.86-.813-.25-.269-.866c-.145-.469-.399-1.113-.393-1.119s.642.76 1.263 1.381c.621.622 1.415 1.267 1.383 1.265s-.73-.262-1.17-.411" style="fill:#4a1b13;fill-opacity:1;stroke:none;stroke-width:.01474771;stroke-miterlimit:4;stroke-dasharray:none;stroke-opacity:1" transform="translate(-105.05 -207.676)"/><path d="m159.717 215.343 1.985.662v1.323l-1.323 1.323-1.323-1.323" style="display:inline;fill:#545454;fill-opacity:1;stroke-width:2.64615941" transform="translate(-105.05 -207.676)"/></g></svg>